<svg id="Layer_1" data-name="Layer 1" xmlns="http://www.w3.org/2000/svg" viewBox="0 0 437.33 235.56"><defs><style>.cls-1{opacity:0.5;}.cls-2{opacity:0.7;}.cls-3{fill:none;stroke:#1c1c1d;}.cls-4{opacity:0.3;}.cls-5{opacity:0.1;}.cls-6{opacity:0.6;}.cls-7{opacity:0.4;}.cls-8{opacity:0.2;}</style></defs><g id="Group_4707" data-name="Group 4707" class="cls-1"><g id="Group_4582" data-name="Group 4582" class="cls-2"><path id="Path_6238" data-name="Path 6238" class="cls-3" d="M262.08,232.87a6.27,6.27,0,0,0,1.72-.24,6.39,6.39,0,0,0,2-1,6.15,6.15,0,0,0,.85-.76,6.32,6.32,0,0,0-.25-8.94,6.24,6.24,0,0,0-2.63-1.5c-.2-.06-.4-.1-.6-.14a7,7,0,0,0-1.12-.1,6.32,6.32,0,0,0-6.24,5.3,0,0,0,0,0,0,0,5.63,5.63,0,0,0-.09,1A6.35,6.35,0,0,0,262.08,232.87Z"/><g id="Group_4581" data-name="Group 4581"><path id="Path_6239" data-name="Path 6239" class="cls-3" d="M243,227.57h7.22a1.12,1.12,0,0,0,1.12-1.12V215.64h10.82a1.11,1.11,0,0,0,1.11-1.11h0V207.3a1.11,1.11,0,0,0-1.11-1.11H246.56a4.76,4.76,0,0,0-3.34,1.38h0a4.76,4.76,0,0,0-1.38,3.34v15.54a1.12,1.12,0,0,0,1.11,1.12Z"/></g></g><g id="Group_4584" data-name="Group 4584" class="cls-2"><path id="Path_6240" data-name="Path 6240" class="cls-3" d="M70.2,232.87a6.14,6.14,0,0,0,1.71-.24,6.33,6.33,0,0,0,0-12.19,5.63,5.63,0,0,0-.59-.14,7.06,7.06,0,0,0-1.12-.1A6.33,6.33,0,0,0,64,225.5v0a5.62,5.62,0,0,0-.08,1A6.34,6.34,0,0,0,70.2,232.87Z"/><g id="Group_4583" data-name="Group 4583"><path id="Path_6241" data-name="Path 6241" class="cls-3" d="M51.07,227.57h7.22a1.12,1.12,0,0,0,1.12-1.12V215.64H70.22a1.11,1.11,0,0,0,1.12-1.11h0V207.3a1.12,1.12,0,0,0-1.12-1.11H54.68a4.74,4.74,0,0,0-3.34,1.38h0A4.72,4.72,0,0,0,50,210.91v15.54a1.12,1.12,0,0,0,1.12,1.12Z"/></g></g><g id="Group_4586" data-name="Group 4586" class="cls-2"><path id="Path_6242" data-name="Path 6242" class="cls-3" d="M214.11,232.87a6.27,6.27,0,0,0,1.72-.24,6.39,6.39,0,0,0,2-1,6.79,6.79,0,0,0,.85-.76,6.34,6.34,0,0,0-2.88-10.44c-.2-.06-.4-.1-.6-.14a7,7,0,0,0-1.12-.1,6.33,6.33,0,0,0-6.25,5.3v0a6.74,6.74,0,0,0-.08,1A6.34,6.34,0,0,0,214.11,232.87Z"/><g id="Group_4585" data-name="Group 4585"><path id="Path_6243" data-name="Path 6243" class="cls-3" d="M195,227.57h7.22a1.12,1.12,0,0,0,1.12-1.12V215.64h10.82a1.11,1.11,0,0,0,1.11-1.11h0V207.3a1.11,1.11,0,0,0-1.11-1.11H198.59a4.76,4.76,0,0,0-3.34,1.38h0a4.67,4.67,0,0,0-1.38,3.34v15.54a1.12,1.12,0,0,0,1.11,1.12Z"/></g></g><g id="Group_4588" data-name="Group 4588" class="cls-2"><path id="Path_6244" data-name="Path 6244" class="cls-3" d="M22.23,232.87a6.19,6.19,0,0,0,1.71-.24,6.39,6.39,0,0,0,2-1,6.23,6.23,0,0,0,.86-.76,6.33,6.33,0,0,0-2.89-10.44,5.63,5.63,0,0,0-.59-.14,7.06,7.06,0,0,0-1.12-.1A6.33,6.33,0,0,0,16,225.5v0a5.62,5.62,0,0,0-.08,1A6.34,6.34,0,0,0,22.23,232.87Z"/><g id="Group_4587" data-name="Group 4587"><path id="Path_6245" data-name="Path 6245" class="cls-3" d="M3.1,227.57h7.22a1.12,1.12,0,0,0,1.12-1.12V215.64H22.25a1.11,1.11,0,0,0,1.12-1.11h0V207.3a1.12,1.12,0,0,0-1.12-1.11H6.71a4.72,4.72,0,0,0-3.34,1.38h0A4.72,4.72,0,0,0,2,210.91v15.54a1.12,1.12,0,0,0,1.12,1.12Z"/></g></g><g id="Group_4590" data-name="Group 4590" class="cls-2"><path id="Path_6246" data-name="Path 6246" class="cls-3" d="M358.66,232.87a6.27,6.27,0,0,0,1.72-.24,6.39,6.39,0,0,0,2-1,6.15,6.15,0,0,0,.85-.76,6.32,6.32,0,0,0-.25-8.94,6.24,6.24,0,0,0-2.63-1.5,5.82,5.82,0,0,0-.6-.14,7,7,0,0,0-1.12-.1,6.32,6.32,0,0,0-6.24,5.3v0a5.63,5.63,0,0,0-.09,1A6.35,6.35,0,0,0,358.66,232.87Z"/><g id="Group_4589" data-name="Group 4589"><path id="Path_6247" data-name="Path 6247" class="cls-3" d="M339.53,227.57h7.23a1.12,1.12,0,0,0,1.11-1.12V215.64h10.82a1.11,1.11,0,0,0,1.11-1.11h0V207.3a1.11,1.11,0,0,0-1.11-1.11H343.14a4.76,4.76,0,0,0-3.34,1.38h0a4.76,4.76,0,0,0-1.38,3.34v15.54a1.12,1.12,0,0,0,1.11,1.12Z"/></g></g><g id="Group_4592" data-name="Group 4592" class="cls-2"><path id="Path_6248" data-name="Path 6248" class="cls-3" d="M166.14,232.87a6.27,6.27,0,0,0,1.72-.24,6.39,6.39,0,0,0,2-1,6.79,6.79,0,0,0,.85-.76,6.34,6.34,0,0,0-2.88-10.44c-.2-.06-.4-.1-.6-.14a7,7,0,0,0-1.12-.1,6.33,6.33,0,0,0-6.25,5.3v0a6.74,6.74,0,0,0-.08,1A6.34,6.34,0,0,0,166.14,232.87Z"/><g id="Group_4591" data-name="Group 4591"><path id="Path_6249" data-name="Path 6249" class="cls-3" d="M147,227.57h7.22a1.12,1.12,0,0,0,1.12-1.12V215.64h10.81a1.11,1.11,0,0,0,1.12-1.11h0V207.3a1.12,1.12,0,0,0-1.12-1.11H150.62a4.74,4.74,0,0,0-3.34,1.38h0a4.72,4.72,0,0,0-1.39,3.34v15.54a1.13,1.13,0,0,0,1.12,1.12Z"/></g></g><g id="Group_4594" data-name="Group 4594" class="cls-2"><path id="Path_6250" data-name="Path 6250" class="cls-3" d="M310.05,232.87a6.27,6.27,0,0,0,1.72-.24,6.39,6.39,0,0,0,2-1,6.15,6.15,0,0,0,.85-.76,6.32,6.32,0,0,0-.25-8.94,6.24,6.24,0,0,0-2.63-1.5,5.82,5.82,0,0,0-.6-.14,7,7,0,0,0-1.12-.1,6.32,6.32,0,0,0-6.24,5.3v0a5.63,5.63,0,0,0-.09,1A6.35,6.35,0,0,0,310.05,232.87Z"/><g id="Group_4593" data-name="Group 4593"><path id="Path_6251" data-name="Path 6251" class="cls-3" d="M290.92,227.57h7.23a1.12,1.12,0,0,0,1.11-1.12V215.64h10.82a1.11,1.11,0,0,0,1.11-1.11h0V207.3a1.11,1.11,0,0,0-1.11-1.11H294.53a4.76,4.76,0,0,0-3.34,1.38h0a4.76,4.76,0,0,0-1.38,3.34v15.54a1.12,1.12,0,0,0,1.11,1.12Z"/></g></g><g id="Group_4596" data-name="Group 4596" class="cls-2"><path id="Path_6252" data-name="Path 6252" class="cls-3" d="M118.17,232.87a6.14,6.14,0,0,0,1.71-.24,6.33,6.33,0,0,0,0-12.19,5.63,5.63,0,0,0-.59-.14,7.06,7.06,0,0,0-1.12-.1,6.33,6.33,0,0,0-6.25,5.3v0a6.74,6.74,0,0,0-.08,1A6.34,6.34,0,0,0,118.17,232.87Z"/><g id="Group_4595" data-name="Group 4595"><path id="Path_6253" data-name="Path 6253" class="cls-3" d="M99,227.57h7.22a1.12,1.12,0,0,0,1.12-1.12V215.64h10.81a1.11,1.11,0,0,0,1.12-1.11h0V207.3a1.12,1.12,0,0,0-1.12-1.11H102.65a4.74,4.74,0,0,0-3.34,1.38h0a4.72,4.72,0,0,0-1.39,3.34v15.54A1.12,1.12,0,0,0,99,227.57Z"/></g></g><g id="Group_4598" data-name="Group 4598" class="cls-2"><path id="Path_6254" data-name="Path 6254" class="cls-3" d="M406.64,232.87a6.19,6.19,0,0,0,1.71-.24,6.39,6.39,0,0,0,2-1,5.62,5.62,0,0,0,.85-.76,6.33,6.33,0,0,0-2.88-10.44,5.63,5.63,0,0,0-.59-.14,7.06,7.06,0,0,0-1.12-.1,6.33,6.33,0,0,0-6.25,5.3v0a5.62,5.62,0,0,0-.08,1A6.34,6.34,0,0,0,406.64,232.87Z"/><g id="Group_4597" data-name="Group 4597"><path id="Path_6255" data-name="Path 6255" class="cls-3" d="M387.5,227.57h7.23a1.13,1.13,0,0,0,1.12-1.12V215.64h10.81a1.11,1.11,0,0,0,1.12-1.11h0V207.3a1.12,1.12,0,0,0-1.12-1.11H391.12a4.72,4.72,0,0,0-3.34,1.38h0a4.72,4.72,0,0,0-1.39,3.34v15.54a1.12,1.12,0,0,0,1.12,1.12Z"/></g></g><g id="Group_4600" data-name="Group 4600" class="cls-1"><path id="Path_6256" data-name="Path 6256" class="cls-3" d="M258.88,165a6.27,6.27,0,0,0,1.72-.24,6,6,0,0,0,2-1,5.5,5.5,0,0,0,.85-.75,6.33,6.33,0,0,0-2.88-10.44,4,4,0,0,0-.6-.14,6,6,0,0,0-1.12-.1,6.32,6.32,0,0,0-6.24,5.3v0a5.75,5.75,0,0,0-.09,1A6.33,6.33,0,0,0,258.88,165Z"/><g id="Group_4599" data-name="Group 4599"><path id="Path_6257" data-name="Path 6257" class="cls-3" d="M239.75,159.74H247a1.12,1.12,0,0,0,1.11-1.12V147.81h10.82A1.11,1.11,0,0,0,260,146.7h0v-7.23a1.11,1.11,0,0,0-1.11-1.11H243.36a4.67,4.67,0,0,0-3.34,1.38h0a4.76,4.76,0,0,0-1.38,3.34v15.54a1.12,1.12,0,0,0,1.11,1.12Z"/></g></g><g id="Group_4602" data-name="Group 4602" class="cls-1"><path id="Path_6258" data-name="Path 6258" class="cls-3" d="M69.56,165a6.14,6.14,0,0,0,1.71-.24,5.9,5.9,0,0,0,2-1,5.57,5.57,0,0,0,.86-.75,6.33,6.33,0,0,0-.25-9,6.42,6.42,0,0,0-2.64-1.49,3.9,3.9,0,0,0-.59-.14,6.06,6.06,0,0,0-1.12-.1,6.33,6.33,0,0,0-6.25,5.3v0a5.73,5.73,0,0,0-.08,1A6.32,6.32,0,0,0,69.56,165Z"/><g id="Group_4601" data-name="Group 4601"><path id="Path_6259" data-name="Path 6259" class="cls-3" d="M50.43,159.74h7.22a1.12,1.12,0,0,0,1.12-1.12V147.81H69.58a1.12,1.12,0,0,0,1.12-1.11h0v-7.23a1.12,1.12,0,0,0-1.12-1.11H54a4.66,4.66,0,0,0-3.34,1.38h0a4.72,4.72,0,0,0-1.39,3.34v15.54a1.12,1.12,0,0,0,1.12,1.12Z"/></g></g><g id="Group_4604" data-name="Group 4604" class="cls-1"><path id="Path_6260" data-name="Path 6260" class="cls-3" d="M22.23,165a6.19,6.19,0,0,0,1.71-.24,6,6,0,0,0,2-1,5.57,5.57,0,0,0,.86-.75,6.33,6.33,0,0,0-.25-9,6.42,6.42,0,0,0-2.64-1.49,3.9,3.9,0,0,0-.59-.14,6.06,6.06,0,0,0-1.12-.1,6.33,6.33,0,0,0-6.25,5.3v0a5.73,5.73,0,0,0-.08,1A6.32,6.32,0,0,0,22.23,165Z"/><g id="Group_4603" data-name="Group 4603"><path id="Path_6261" data-name="Path 6261" class="cls-3" d="M3.1,159.74h7.22a1.12,1.12,0,0,0,1.12-1.12V147.81H22.25a1.12,1.12,0,0,0,1.12-1.11h0v-7.23a1.12,1.12,0,0,0-1.12-1.11H6.71a4.64,4.64,0,0,0-3.34,1.38h0A4.72,4.72,0,0,0,2,143.08v15.54a1.12,1.12,0,0,0,1.12,1.12Z"/></g></g><g id="Group_4606" data-name="Group 4606" class="cls-4"><path id="Path_6262" data-name="Path 6262" class="cls-3" d="M258.88,97.2A6.27,6.27,0,0,0,260.6,97a6.18,6.18,0,0,0,2-1,6.08,6.08,0,0,0,.85-.75,6.33,6.33,0,0,0-.25-9,6.22,6.22,0,0,0-2.63-1.49,4,4,0,0,0-.6-.14,6,6,0,0,0-1.12-.1,6.31,6.31,0,0,0-6.24,5.3v0a5.66,5.66,0,0,0-.09,1A6.34,6.34,0,0,0,258.88,97.2Z"/><g id="Group_4605" data-name="Group 4605"><path id="Path_6263" data-name="Path 6263" class="cls-3" d="M239.75,91.91H247a1.13,1.13,0,0,0,1.11-1.12V80h10.82A1.12,1.12,0,0,0,260,78.86h0V71.64a1.12,1.12,0,0,0-1.11-1.12H243.36A4.72,4.72,0,0,0,240,71.91h0a4.72,4.72,0,0,0-1.38,3.34V90.79a1.11,1.11,0,0,0,1.11,1.11Z"/></g></g><g id="Group_4608" data-name="Group 4608" class="cls-4"><path id="Path_6264" data-name="Path 6264" class="cls-3" d="M69.56,97.2a6.44,6.44,0,0,0,4.6-2,6.32,6.32,0,0,0-2.89-10.44,3.9,3.9,0,0,0-.59-.14,6.06,6.06,0,0,0-1.12-.1,6.32,6.32,0,0,0-6.25,5.3v0a5.66,5.66,0,0,0-.08,1A6.33,6.33,0,0,0,69.56,97.2Z"/><g id="Group_4607" data-name="Group 4607"><path id="Path_6265" data-name="Path 6265" class="cls-3" d="M50.43,91.91h7.22a1.13,1.13,0,0,0,1.12-1.12V80H69.58a1.12,1.12,0,0,0,1.12-1.12h0V71.64a1.12,1.12,0,0,0-1.12-1.12H54a4.71,4.71,0,0,0-3.34,1.39h0a4.69,4.69,0,0,0-1.39,3.34V90.79a1.12,1.12,0,0,0,1.12,1.11Z"/></g></g><g id="Group_4610" data-name="Group 4610" class="cls-4"><path id="Path_6266" data-name="Path 6266" class="cls-3" d="M22.23,97.2a6.44,6.44,0,0,0,4.6-2,6.32,6.32,0,0,0-2.89-10.44,3.9,3.9,0,0,0-.59-.14,6.06,6.06,0,0,0-1.12-.1A6.32,6.32,0,0,0,16,89.84v0a5.66,5.66,0,0,0-.08,1A6.33,6.33,0,0,0,22.23,97.2Z"/><g id="Group_4609" data-name="Group 4609"><path id="Path_6267" data-name="Path 6267" class="cls-3" d="M3.1,91.91h7.22a1.14,1.14,0,0,0,1.12-1.12V80H22.25a1.12,1.12,0,0,0,1.12-1.12h0V71.64a1.12,1.12,0,0,0-1.12-1.12H6.71a4.69,4.69,0,0,0-3.34,1.39h0A4.69,4.69,0,0,0,2,75.25V90.79A1.12,1.12,0,0,0,3.1,91.9Z"/></g></g><g id="Group_4612" data-name="Group 4612" class="cls-5"><path id="Path_6268" data-name="Path 6268" class="cls-3" d="M258.88,29.37a6.27,6.27,0,0,0,1.72-.24,6.19,6.19,0,0,0,2.88-1.75,6.32,6.32,0,0,0-.25-8.94,6.24,6.24,0,0,0-2.63-1.5,4,4,0,0,0-.6-.13,5.25,5.25,0,0,0-1.12-.1,6.31,6.31,0,0,0-6.24,5.3v0a5.66,5.66,0,0,0-.09,1A6.34,6.34,0,0,0,258.88,29.37Z"/><g id="Group_4611" data-name="Group 4611"><path id="Path_6269" data-name="Path 6269" class="cls-3" d="M239.75,24.07H247A1.11,1.11,0,0,0,248.09,23V12.15h10.82A1.12,1.12,0,0,0,260,11h0V3.81a1.12,1.12,0,0,0-1.11-1.12H243.36A4.76,4.76,0,0,0,240,4.07h0a4.76,4.76,0,0,0-1.38,3.35V23a1.12,1.12,0,0,0,1.11,1.12Z"/></g></g><g id="Group_4614" data-name="Group 4614" class="cls-5"><path id="Path_6270" data-name="Path 6270" class="cls-3" d="M69.56,29.37a6.37,6.37,0,0,0,3.74-1.23,6.23,6.23,0,0,0,.86-.76,6.33,6.33,0,0,0-2.89-10.44,3.87,3.87,0,0,0-.59-.13,5.3,5.3,0,0,0-1.12-.1A6.32,6.32,0,0,0,63.31,22v0a5.66,5.66,0,0,0-.08,1A6.33,6.33,0,0,0,69.56,29.37Z"/><g id="Group_4613" data-name="Group 4613"><path id="Path_6271" data-name="Path 6271" class="cls-3" d="M50.43,24.07h7.22A1.12,1.12,0,0,0,58.77,23V12.15H69.58A1.12,1.12,0,0,0,70.7,11h0V3.81a1.12,1.12,0,0,0-1.12-1.12H54A4.74,4.74,0,0,0,50.7,4.07h0a4.73,4.73,0,0,0-1.39,3.35V23a1.12,1.12,0,0,0,1.12,1.12Z"/></g></g><g id="Group_4616" data-name="Group 4616" class="cls-5"><path id="Path_6272" data-name="Path 6272" class="cls-3" d="M22.23,29.37a6.35,6.35,0,0,0,4.6-2,6.33,6.33,0,0,0-2.89-10.44,3.87,3.87,0,0,0-.59-.13,5.3,5.3,0,0,0-1.12-.1A6.32,6.32,0,0,0,16,22v0a5.66,5.66,0,0,0-.08,1A6.33,6.33,0,0,0,22.23,29.37Z"/><g id="Group_4615" data-name="Group 4615"><path id="Path_6273" data-name="Path 6273" class="cls-3" d="M3.1,24.07h7.22A1.12,1.12,0,0,0,11.44,23V12.15H22.25A1.12,1.12,0,0,0,23.37,11h0V3.81a1.12,1.12,0,0,0-1.12-1.12H6.71A4.72,4.72,0,0,0,3.37,4.07h0A4.73,4.73,0,0,0,2,7.42V23A1.12,1.12,0,0,0,3.1,24.07Z"/></g></g><g id="Group_4618" data-name="Group 4618" class="cls-1"><path id="Path_6274" data-name="Path 6274" class="cls-3" d="M353.55,165a6.19,6.19,0,0,0,1.71-.24,6,6,0,0,0,2-1,5.57,5.57,0,0,0,.86-.75,6.33,6.33,0,0,0-.25-9,6.42,6.42,0,0,0-2.64-1.49,3.9,3.9,0,0,0-.59-.14,6.06,6.06,0,0,0-1.12-.1,6.33,6.33,0,0,0-6.25,5.3v0a5.73,5.73,0,0,0-.08,1A6.32,6.32,0,0,0,353.55,165Z"/><g id="Group_4617" data-name="Group 4617"><path id="Path_6275" data-name="Path 6275" class="cls-3" d="M334.42,159.74h7.22a1.12,1.12,0,0,0,1.12-1.12V147.81h10.81a1.12,1.12,0,0,0,1.12-1.11h0v-7.23a1.12,1.12,0,0,0-1.12-1.11H338a4.64,4.64,0,0,0-3.34,1.38h0a4.72,4.72,0,0,0-1.39,3.34v15.54a1.12,1.12,0,0,0,1.12,1.12Z"/></g></g><g id="Group_4620" data-name="Group 4620" class="cls-1"><path id="Path_6276" data-name="Path 6276" class="cls-3" d="M164.22,165a6.27,6.27,0,0,0,1.72-.24,6.33,6.33,0,0,0,2.88-1.74,6.33,6.33,0,0,0-2.88-10.44,4.34,4.34,0,0,0-.6-.14,6,6,0,0,0-1.12-.1,6.33,6.33,0,0,0-6.25,5.3v0a6.87,6.87,0,0,0-.08,1A6.32,6.32,0,0,0,164.22,165Z"/><g id="Group_4619" data-name="Group 4619"><path id="Path_6277" data-name="Path 6277" class="cls-3" d="M145.09,159.74h7.22a1.12,1.12,0,0,0,1.12-1.12V147.81h10.82a1.11,1.11,0,0,0,1.11-1.11h0v-7.23a1.11,1.11,0,0,0-1.11-1.11H148.7a4.67,4.67,0,0,0-3.34,1.38h0a4.67,4.67,0,0,0-1.38,3.34v15.54a1.12,1.12,0,0,0,1.11,1.12Z"/></g></g><g id="Group_4622" data-name="Group 4622" class="cls-4"><path id="Path_6278" data-name="Path 6278" class="cls-3" d="M353.55,97.2a6.44,6.44,0,0,0,4.6-2,6.32,6.32,0,0,0-2.89-10.44,3.9,3.9,0,0,0-.59-.14,6.06,6.06,0,0,0-1.12-.1,6.32,6.32,0,0,0-6.25,5.3v0a5.66,5.66,0,0,0-.08,1A6.33,6.33,0,0,0,353.55,97.2Z"/><g id="Group_4621" data-name="Group 4621"><path id="Path_6279" data-name="Path 6279" class="cls-3" d="M334.42,91.91h7.22a1.14,1.14,0,0,0,1.12-1.12V80h10.81a1.12,1.12,0,0,0,1.12-1.12h0V71.64a1.12,1.12,0,0,0-1.12-1.12H338a4.69,4.69,0,0,0-3.34,1.39h0a4.69,4.69,0,0,0-1.39,3.34V90.79a1.12,1.12,0,0,0,1.12,1.11Z"/></g></g><g id="Group_4624" data-name="Group 4624" class="cls-4"><path id="Path_6280" data-name="Path 6280" class="cls-3" d="M164.22,97.2a6.27,6.27,0,0,0,1.72-.24,6.18,6.18,0,0,0,2-1,6.71,6.71,0,0,0,.85-.75,6.33,6.33,0,0,0-2.88-10.44,4.34,4.34,0,0,0-.6-.14,6,6,0,0,0-1.12-.1,6.32,6.32,0,0,0-6.25,5.3v0a6.77,6.77,0,0,0-.08,1A6.33,6.33,0,0,0,164.22,97.2Z"/><g id="Group_4623" data-name="Group 4623"><path id="Path_6281" data-name="Path 6281" class="cls-3" d="M145.09,91.91h7.22a1.13,1.13,0,0,0,1.12-1.12V80h10.82a1.12,1.12,0,0,0,1.11-1.12h0V71.64a1.12,1.12,0,0,0-1.11-1.12H148.7a4.72,4.72,0,0,0-3.34,1.39h0A4.64,4.64,0,0,0,144,75.25V90.79a1.11,1.11,0,0,0,1.11,1.11Z"/></g></g><g id="Group_4626" data-name="Group 4626" class="cls-5"><path id="Path_6282" data-name="Path 6282" class="cls-3" d="M353.55,29.37a6.35,6.35,0,0,0,4.6-2,6.33,6.33,0,0,0-2.89-10.44,3.87,3.87,0,0,0-.59-.13,5.3,5.3,0,0,0-1.12-.1A6.32,6.32,0,0,0,347.3,22v0a5.66,5.66,0,0,0-.08,1A6.33,6.33,0,0,0,353.55,29.37Z"/><g id="Group_4625" data-name="Group 4625"><path id="Path_6283" data-name="Path 6283" class="cls-3" d="M334.42,24.07h7.22A1.12,1.12,0,0,0,342.76,23V12.15h10.81A1.12,1.12,0,0,0,354.69,11h0V3.81a1.12,1.12,0,0,0-1.12-1.12H338a4.72,4.72,0,0,0-3.34,1.38h0a4.73,4.73,0,0,0-1.39,3.35V23a1.12,1.12,0,0,0,1.12,1.12Z"/></g></g><g id="Group_4628" data-name="Group 4628" class="cls-5"><path id="Path_6284" data-name="Path 6284" class="cls-3" d="M164.22,29.37a6.27,6.27,0,0,0,1.72-.24,6.18,6.18,0,0,0,2-1,6.79,6.79,0,0,0,.85-.76,6.34,6.34,0,0,0-2.88-10.44,4.29,4.29,0,0,0-.6-.13,5.25,5.25,0,0,0-1.12-.1A6.32,6.32,0,0,0,158,22v0a6.77,6.77,0,0,0-.08,1A6.33,6.33,0,0,0,164.22,29.37Z"/><g id="Group_4627" data-name="Group 4627"><path id="Path_6285" data-name="Path 6285" class="cls-3" d="M145.09,24.07h7.22A1.12,1.12,0,0,0,153.43,23V12.15h10.82A1.12,1.12,0,0,0,165.36,11h0V3.81a1.12,1.12,0,0,0-1.11-1.12H148.7a4.76,4.76,0,0,0-3.34,1.38h0A4.68,4.68,0,0,0,144,7.42V23a1.12,1.12,0,0,0,1.11,1.12Z"/></g></g><g id="Group_4630" data-name="Group 4630" class="cls-1"><path id="Path_6286" data-name="Path 6286" class="cls-3" d="M306.22,165a6.18,6.18,0,0,0,1.71-.23,6.39,6.39,0,0,0,2-1,5.62,5.62,0,0,0,.85-.76,6.33,6.33,0,0,0-2.88-10.44,5.63,5.63,0,0,0-.59-.14,7.06,7.06,0,0,0-1.12-.1,6.33,6.33,0,0,0-6.25,5.3v0a5.62,5.62,0,0,0-.08,1A6.32,6.32,0,0,0,306.22,165Z"/><g id="Group_4629" data-name="Group 4629"><path id="Path_6287" data-name="Path 6287" class="cls-3" d="M287.08,159.74h7.23a1.13,1.13,0,0,0,1.12-1.12V147.81h10.81a1.11,1.11,0,0,0,1.12-1.11h0v-7.23a1.12,1.12,0,0,0-1.12-1.11H290.7a4.68,4.68,0,0,0-3.34,1.38h0a4.72,4.72,0,0,0-1.39,3.34v15.54a1.12,1.12,0,0,0,1.12,1.12Z"/></g></g><g id="Group_4632" data-name="Group 4632" class="cls-1"><path id="Path_6288" data-name="Path 6288" class="cls-3" d="M116.89,165a6.26,6.26,0,0,0,1.72-.23,6.39,6.39,0,0,0,2-1,6.79,6.79,0,0,0,.85-.76,6.34,6.34,0,0,0-2.88-10.44c-.2-.06-.4-.1-.6-.14a7,7,0,0,0-1.12-.1,6.33,6.33,0,0,0-6.25,5.3v0a6.74,6.74,0,0,0-.08,1A6.32,6.32,0,0,0,116.89,165Z"/><g id="Group_4631" data-name="Group 4631"><path id="Path_6289" data-name="Path 6289" class="cls-3" d="M97.76,159.74H105a1.12,1.12,0,0,0,1.12-1.12V147.81h10.81A1.11,1.11,0,0,0,118,146.7h0v-7.23a1.12,1.12,0,0,0-1.12-1.11H101.37A4.7,4.7,0,0,0,98,139.74h0a4.72,4.72,0,0,0-1.39,3.34v15.54a1.13,1.13,0,0,0,1.12,1.12Z"/></g></g><g id="Group_4634" data-name="Group 4634" class="cls-4"><path id="Path_6290" data-name="Path 6290" class="cls-3" d="M306.22,97.2A6.37,6.37,0,0,0,310,96a5.07,5.07,0,0,0,.85-.75,6.32,6.32,0,0,0-.24-9,6.42,6.42,0,0,0-2.64-1.49,3.9,3.9,0,0,0-.59-.14,6.06,6.06,0,0,0-1.12-.1,6.33,6.33,0,0,0-6.25,5.3v0a5.73,5.73,0,0,0-.08,1A6.32,6.32,0,0,0,306.22,97.2Z"/><g id="Group_4633" data-name="Group 4633"><path id="Path_6291" data-name="Path 6291" class="cls-3" d="M287.08,91.91h7.23a1.13,1.13,0,0,0,1.12-1.12V80h10.81a1.12,1.12,0,0,0,1.12-1.11h0V71.64a1.11,1.11,0,0,0-1.12-1.11H290.7a4.64,4.64,0,0,0-3.34,1.38h0A4.71,4.71,0,0,0,286,75.25V90.79a1.13,1.13,0,0,0,1.12,1.12Z"/></g></g><g id="Group_4636" data-name="Group 4636" class="cls-4"><path id="Path_6292" data-name="Path 6292" class="cls-3" d="M116.89,97.2a6.27,6.27,0,0,0,1.72-.24,6.18,6.18,0,0,0,2-1,6,6,0,0,0,.85-.75,6.33,6.33,0,0,0-2.88-10.44,4.34,4.34,0,0,0-.6-.14,6,6,0,0,0-1.12-.1,6.33,6.33,0,0,0-6.25,5.3v0a6.87,6.87,0,0,0-.08,1A6.32,6.32,0,0,0,116.89,97.2Z"/><g id="Group_4635" data-name="Group 4635"><path id="Path_6293" data-name="Path 6293" class="cls-3" d="M97.76,91.91H105a1.12,1.12,0,0,0,1.12-1.12V80h10.81A1.12,1.12,0,0,0,118,78.87h0V71.64a1.11,1.11,0,0,0-1.12-1.11H101.37A4.66,4.66,0,0,0,98,71.91h0a4.71,4.71,0,0,0-1.39,3.34V90.79a1.14,1.14,0,0,0,1.12,1.12Z"/></g></g><g id="Group_4638" data-name="Group 4638" class="cls-5"><path id="Path_6294" data-name="Path 6294" class="cls-3" d="M306.22,29.37A6.37,6.37,0,0,0,310,28.14a5.13,5.13,0,0,0,.85-.76A6.31,6.31,0,0,0,307.93,17a3.9,3.9,0,0,0-.59-.14,6.06,6.06,0,0,0-1.12-.1A6.32,6.32,0,0,0,300,22v0a5.66,5.66,0,0,0-.08,1A6.33,6.33,0,0,0,306.22,29.37Z"/><g id="Group_4637" data-name="Group 4637"><path id="Path_6295" data-name="Path 6295" class="cls-3" d="M287.08,24.07h7.23A1.13,1.13,0,0,0,295.43,23V12.15h10.81A1.12,1.12,0,0,0,307.36,11h0V3.81a1.12,1.12,0,0,0-1.12-1.12H290.7a4.69,4.69,0,0,0-3.34,1.39h0A4.69,4.69,0,0,0,286,7.42V23a1.12,1.12,0,0,0,1.12,1.11Z"/></g></g><g id="Group_4640" data-name="Group 4640" class="cls-5"><path id="Path_6296" data-name="Path 6296" class="cls-3" d="M116.89,29.37a6.27,6.27,0,0,0,1.72-.24,6.18,6.18,0,0,0,2-1,6.08,6.08,0,0,0,.85-.76A6.32,6.32,0,0,0,118.61,17a4.34,4.34,0,0,0-.6-.14,6,6,0,0,0-1.12-.1,6.32,6.32,0,0,0-6.25,5.3v0a6.77,6.77,0,0,0-.08,1A6.33,6.33,0,0,0,116.89,29.37Z"/><g id="Group_4639" data-name="Group 4639"><path id="Path_6297" data-name="Path 6297" class="cls-3" d="M97.76,24.07H105A1.12,1.12,0,0,0,106.1,23V12.15h10.81A1.12,1.12,0,0,0,118,11h0V3.81a1.12,1.12,0,0,0-1.12-1.12H101.37A4.71,4.71,0,0,0,98,4.08h0a4.69,4.69,0,0,0-1.39,3.34V23a1.13,1.13,0,0,0,1.12,1.11Z"/></g></g><g id="Group_4642" data-name="Group 4642" class="cls-1"><path id="Path_6298" data-name="Path 6298" class="cls-3" d="M400.88,165a6.13,6.13,0,0,0,1.71-.23,6.33,6.33,0,0,0,0-12.19,5.63,5.63,0,0,0-.59-.14,7.06,7.06,0,0,0-1.12-.1,6.33,6.33,0,0,0-6.25,5.3v0a6.74,6.74,0,0,0-.08,1A6.32,6.32,0,0,0,400.88,165Z"/><g id="Group_4641" data-name="Group 4641"><path id="Path_6299" data-name="Path 6299" class="cls-3" d="M381.75,159.74H389a1.12,1.12,0,0,0,1.12-1.12V147.81H400.9A1.11,1.11,0,0,0,402,146.7h0v-7.23a1.12,1.12,0,0,0-1.12-1.11H385.36a4.7,4.7,0,0,0-3.34,1.38h0a4.72,4.72,0,0,0-1.39,3.34v15.54a1.12,1.12,0,0,0,1.12,1.12Z"/></g></g><g id="Group_4644" data-name="Group 4644" class="cls-1"><path id="Path_6300" data-name="Path 6300" class="cls-3" d="M211.55,165a6.26,6.26,0,0,0,1.72-.23,6.39,6.39,0,0,0,2-1,6.15,6.15,0,0,0,.85-.76,6.32,6.32,0,0,0-.25-8.94,6.24,6.24,0,0,0-2.63-1.5c-.2-.06-.4-.1-.6-.14a7,7,0,0,0-1.12-.1,6.32,6.32,0,0,0-6.24,5.3,0,0,0,0,0,0,0,5.63,5.63,0,0,0-.09,1A6.33,6.33,0,0,0,211.55,165Z"/><g id="Group_4643" data-name="Group 4643"><path id="Path_6301" data-name="Path 6301" class="cls-3" d="M192.42,159.74h7.22a1.12,1.12,0,0,0,1.12-1.12V147.81h10.82a1.11,1.11,0,0,0,1.11-1.11h0v-7.23a1.11,1.11,0,0,0-1.11-1.11H196a4.71,4.71,0,0,0-3.34,1.38h0a4.76,4.76,0,0,0-1.38,3.34v15.54a1.12,1.12,0,0,0,1.11,1.12Z"/></g></g><g id="Group_4646" data-name="Group 4646" class="cls-4"><path id="Path_6302" data-name="Path 6302" class="cls-3" d="M400.88,97.2A6.37,6.37,0,0,0,404.62,96a5.57,5.57,0,0,0,.86-.75,6.32,6.32,0,0,0-2.89-10.44,3.9,3.9,0,0,0-.59-.14,6.06,6.06,0,0,0-1.12-.1,6.33,6.33,0,0,0-6.25,5.3v0a6.87,6.87,0,0,0-.08,1A6.32,6.32,0,0,0,400.88,97.2Z"/><g id="Group_4645" data-name="Group 4645"><path id="Path_6303" data-name="Path 6303" class="cls-3" d="M381.75,91.91H389a1.12,1.12,0,0,0,1.12-1.12V80H400.9A1.12,1.12,0,0,0,402,78.87h0V71.64a1.11,1.11,0,0,0-1.12-1.11H385.36A4.66,4.66,0,0,0,382,71.91h0a4.71,4.71,0,0,0-1.39,3.34V90.79a1.14,1.14,0,0,0,1.12,1.12Z"/></g></g><g id="Group_4648" data-name="Group 4648" class="cls-4"><path id="Path_6304" data-name="Path 6304" class="cls-3" d="M211.55,97.2a6.27,6.27,0,0,0,1.72-.24,6.18,6.18,0,0,0,2-1,5.5,5.5,0,0,0,.85-.75,6.33,6.33,0,0,0-2.88-10.44,4.34,4.34,0,0,0-.6-.14,6,6,0,0,0-1.12-.1,6.32,6.32,0,0,0-6.24,5.3s0,0,0,0a5.75,5.75,0,0,0-.09,1A6.33,6.33,0,0,0,211.55,97.2Z"/><g id="Group_4647" data-name="Group 4647"><path id="Path_6305" data-name="Path 6305" class="cls-3" d="M192.42,91.91h7.22a1.12,1.12,0,0,0,1.12-1.12V80h10.82a1.11,1.11,0,0,0,1.11-1.11h0V71.64a1.11,1.11,0,0,0-1.11-1.11H196a4.67,4.67,0,0,0-3.34,1.38h0a4.74,4.74,0,0,0-1.38,3.34V90.79a1.13,1.13,0,0,0,1.11,1.12Z"/></g></g><g id="Group_4650" data-name="Group 4650" class="cls-5"><path id="Path_6306" data-name="Path 6306" class="cls-3" d="M400.88,29.37a6.37,6.37,0,0,0,3.74-1.23,5.64,5.64,0,0,0,.86-.76,6.32,6.32,0,0,0-.25-8.94A6.25,6.25,0,0,0,402.59,17a3.9,3.9,0,0,0-.59-.14,6.06,6.06,0,0,0-1.12-.1,6.32,6.32,0,0,0-6.25,5.3v0a6.77,6.77,0,0,0-.08,1A6.33,6.33,0,0,0,400.88,29.37Z"/><g id="Group_4649" data-name="Group 4649"><path id="Path_6307" data-name="Path 6307" class="cls-3" d="M381.75,24.07H389A1.12,1.12,0,0,0,390.09,23V12.15H400.9A1.12,1.12,0,0,0,402,11h0V3.81a1.12,1.12,0,0,0-1.12-1.12H385.36A4.71,4.71,0,0,0,382,4.08h0a4.69,4.69,0,0,0-1.39,3.34V23a1.12,1.12,0,0,0,1.12,1.11Z"/></g></g><g id="Group_4652" data-name="Group 4652" class="cls-5"><path id="Path_6308" data-name="Path 6308" class="cls-3" d="M211.55,29.37a6.27,6.27,0,0,0,1.72-.24,6.18,6.18,0,0,0,2-1,5.57,5.57,0,0,0,.85-.76,6.32,6.32,0,0,0-.25-8.94A6.22,6.22,0,0,0,213.27,17a4.34,4.34,0,0,0-.6-.14,6,6,0,0,0-1.12-.1,6.31,6.31,0,0,0-6.24,5.3s0,0,0,0a5.66,5.66,0,0,0-.09,1A6.34,6.34,0,0,0,211.55,29.37Z"/><g id="Group_4651" data-name="Group 4651"><path id="Path_6309" data-name="Path 6309" class="cls-3" d="M192.42,24.07h7.22A1.12,1.12,0,0,0,200.76,23V12.15h10.82A1.12,1.12,0,0,0,212.69,11h0V3.81a1.12,1.12,0,0,0-1.11-1.12H196a4.72,4.72,0,0,0-3.34,1.39h0a4.72,4.72,0,0,0-1.38,3.34V23a1.11,1.11,0,0,0,1.11,1.11Z"/></g></g><g id="Group_4654" data-name="Group 4654" class="cls-6"><path id="Path_6310" data-name="Path 6310" class="cls-3" d="M284.47,199a6.37,6.37,0,0,0,3.74-1.23,5.64,5.64,0,0,0,.86-.76,6.32,6.32,0,0,0-.25-8.94,6.25,6.25,0,0,0-2.64-1.49,3.9,3.9,0,0,0-.59-.14,6.06,6.06,0,0,0-1.12-.1,6.32,6.32,0,0,0-6.25,5.3v0a6.77,6.77,0,0,0-.08,1A6.33,6.33,0,0,0,284.47,199Z"/><g id="Group_4653" data-name="Group 4653"><path id="Path_6311" data-name="Path 6311" class="cls-3" d="M265.34,193.65h7.22a1.12,1.12,0,0,0,1.12-1.11V181.73h10.81a1.12,1.12,0,0,0,1.12-1.12h0v-7.22a1.12,1.12,0,0,0-1.12-1.12H269a4.71,4.71,0,0,0-3.34,1.39h0a4.69,4.69,0,0,0-1.39,3.34v15.54a1.12,1.12,0,0,0,1.12,1.11Z"/></g></g><g id="Group_4656" data-name="Group 4656" class="cls-6"><path id="Path_6312" data-name="Path 6312" class="cls-3" d="M91.94,199a6.27,6.27,0,0,0,1.72-.24,6.18,6.18,0,0,0,2-1,5.57,5.57,0,0,0,.85-.76,6.31,6.31,0,0,0-2.88-10.43,3.9,3.9,0,0,0-.59-.14,6.09,6.09,0,0,0-1.13-.1,6.31,6.31,0,0,0-6.24,5.3v0a4.86,4.86,0,0,0-.08,1A6.33,6.33,0,0,0,91.94,199Z"/><g id="Group_4655" data-name="Group 4655"><path id="Path_6313" data-name="Path 6313" class="cls-3" d="M72.81,193.65H80a1.11,1.11,0,0,0,1.11-1.11V181.73H92a1.12,1.12,0,0,0,1.12-1.12h0v-7.22A1.12,1.12,0,0,0,92,172.27H76.43a4.69,4.69,0,0,0-3.34,1.39h0A4.69,4.69,0,0,0,71.7,177v15.54a1.12,1.12,0,0,0,1.12,1.11Z"/></g></g><g id="Group_4658" data-name="Group 4658" class="cls-6"><path id="Path_6314" data-name="Path 6314" class="cls-3" d="M43.33,199a6.27,6.27,0,0,0,1.72-.24,6.18,6.18,0,0,0,2-1,5.57,5.57,0,0,0,.85-.76,6.32,6.32,0,0,0-.25-8.94,6.22,6.22,0,0,0-2.63-1.49,4,4,0,0,0-.6-.14,6,6,0,0,0-1.12-.1,6.31,6.31,0,0,0-6.24,5.3v0a5.66,5.66,0,0,0-.09,1A6.34,6.34,0,0,0,43.33,199Z"/><g id="Group_4657" data-name="Group 4657"><path id="Path_6315" data-name="Path 6315" class="cls-3" d="M24.2,193.65h7.23a1.11,1.11,0,0,0,1.11-1.11V181.73H43.36a1.12,1.12,0,0,0,1.11-1.12h0v-7.22a1.12,1.12,0,0,0-1.11-1.12H27.81a4.72,4.72,0,0,0-3.34,1.39h0A4.72,4.72,0,0,0,23.09,177v15.54a1.11,1.11,0,0,0,1.11,1.11Z"/></g></g><g id="Group_4660" data-name="Group 4660" class="cls-7"><path id="Path_6316" data-name="Path 6316" class="cls-3" d="M284.47,131.12a6.14,6.14,0,0,0,1.71-.24,6.33,6.33,0,0,0,0-12.19,5.63,5.63,0,0,0-.59-.14,7.06,7.06,0,0,0-1.12-.1,6.33,6.33,0,0,0-6.25,5.3v0a6.74,6.74,0,0,0-.08,1A6.34,6.34,0,0,0,284.47,131.12Z"/><g id="Group_4659" data-name="Group 4659"><path id="Path_6317" data-name="Path 6317" class="cls-3" d="M265.34,125.82h7.22a1.12,1.12,0,0,0,1.12-1.12V113.89h10.81a1.11,1.11,0,0,0,1.12-1.11h0v-7.23a1.12,1.12,0,0,0-1.12-1.11H269a4.74,4.74,0,0,0-3.34,1.38h0a4.72,4.72,0,0,0-1.39,3.34V124.7a1.12,1.12,0,0,0,1.12,1.12Z"/></g></g><g id="Group_4662" data-name="Group 4662" class="cls-7"><path id="Path_6318" data-name="Path 6318" class="cls-3" d="M91.3,131.12a6.27,6.27,0,0,0,1.72-.24,6.39,6.39,0,0,0,2-1,6.15,6.15,0,0,0,.85-.76A6.33,6.33,0,0,0,93,118.69a5.63,5.63,0,0,0-.59-.14,7.08,7.08,0,0,0-1.13-.1,6.32,6.32,0,0,0-6.24,5.3v0a4.82,4.82,0,0,0-.08,1A6.34,6.34,0,0,0,91.3,131.12Z"/><g id="Group_4661" data-name="Group 4661"><path id="Path_6319" data-name="Path 6319" class="cls-3" d="M72.17,125.82H79.4a1.12,1.12,0,0,0,1.11-1.12V113.89H91.33a1.11,1.11,0,0,0,1.12-1.11h0v-7.23a1.12,1.12,0,0,0-1.12-1.11H75.79a4.72,4.72,0,0,0-3.34,1.38h0a4.72,4.72,0,0,0-1.39,3.34V124.7a1.12,1.12,0,0,0,1.12,1.12Z"/></g></g><g id="Group_4664" data-name="Group 4664" class="cls-7"><path id="Path_6320" data-name="Path 6320" class="cls-3" d="M43.33,131.12a6.27,6.27,0,0,0,1.72-.24,6.39,6.39,0,0,0,2-1,6.15,6.15,0,0,0,.85-.76,6.32,6.32,0,0,0-.25-8.94,6.24,6.24,0,0,0-2.63-1.5,5.82,5.82,0,0,0-.6-.14,7,7,0,0,0-1.12-.1,6.32,6.32,0,0,0-6.24,5.3v0a5.63,5.63,0,0,0-.09,1A6.35,6.35,0,0,0,43.33,131.12Z"/><g id="Group_4663" data-name="Group 4663"><path id="Path_6321" data-name="Path 6321" class="cls-3" d="M24.2,125.82h7.23a1.12,1.12,0,0,0,1.11-1.12V113.89H43.36a1.11,1.11,0,0,0,1.11-1.11h0v-7.23a1.11,1.11,0,0,0-1.11-1.11H27.81a4.76,4.76,0,0,0-3.34,1.38h0a4.76,4.76,0,0,0-1.38,3.34V124.7a1.12,1.12,0,0,0,1.11,1.12Z"/></g></g><g id="Group_4666" data-name="Group 4666" class="cls-8"><path id="Path_6322" data-name="Path 6322" class="cls-3" d="M284.47,63.28a6.14,6.14,0,0,0,1.71-.24,5.9,5.9,0,0,0,2-1,5.57,5.57,0,0,0,.86-.75,6.32,6.32,0,0,0-2.89-10.44,3.9,3.9,0,0,0-.59-.14,6.06,6.06,0,0,0-1.12-.1,6.33,6.33,0,0,0-6.25,5.3v0a6.87,6.87,0,0,0-.08,1A6.32,6.32,0,0,0,284.47,63.28Z"/><g id="Group_4665" data-name="Group 4665"><path id="Path_6323" data-name="Path 6323" class="cls-3" d="M265.34,58h7.22a1.12,1.12,0,0,0,1.12-1.12V46.06h10.81A1.12,1.12,0,0,0,285.61,45h0V37.72a1.12,1.12,0,0,0-1.12-1.11H269A4.66,4.66,0,0,0,265.61,38h0a4.72,4.72,0,0,0-1.39,3.34V56.87A1.13,1.13,0,0,0,265.34,58Z"/></g></g><g id="Group_4668" data-name="Group 4668" class="cls-8"><path id="Path_6324" data-name="Path 6324" class="cls-3" d="M91.3,63.28A6.27,6.27,0,0,0,93,63a6,6,0,0,0,2-1,5.5,5.5,0,0,0,.85-.75,6.33,6.33,0,0,0-.24-8.95A6.42,6.42,0,0,0,93,50.86a3.9,3.9,0,0,0-.59-.14,6.09,6.09,0,0,0-1.13-.1,6.32,6.32,0,0,0-6.24,5.3v0A4.92,4.92,0,0,0,85,57,6.32,6.32,0,0,0,91.3,63.28Z"/><g id="Group_4667" data-name="Group 4667"><path id="Path_6325" data-name="Path 6325" class="cls-3" d="M72.17,58H79.4a1.12,1.12,0,0,0,1.11-1.12V46.06H91.33A1.12,1.12,0,0,0,92.45,45h0V37.72a1.12,1.12,0,0,0-1.12-1.11H75.79A4.64,4.64,0,0,0,72.45,38h0a4.72,4.72,0,0,0-1.39,3.34V56.87A1.12,1.12,0,0,0,72.18,58Z"/></g></g><g id="Group_4670" data-name="Group 4670" class="cls-8"><path id="Path_6326" data-name="Path 6326" class="cls-3" d="M43.33,63.28A6.27,6.27,0,0,0,45.05,63a6,6,0,0,0,2-1,5.5,5.5,0,0,0,.85-.75,6.33,6.33,0,0,0-2.88-10.44,4,4,0,0,0-.6-.14,6,6,0,0,0-1.12-.1,6.32,6.32,0,0,0-6.24,5.3v0A5.75,5.75,0,0,0,37,57,6.33,6.33,0,0,0,43.33,63.28Z"/><g id="Group_4669" data-name="Group 4669"><path id="Path_6327" data-name="Path 6327" class="cls-3" d="M24.2,58h7.23a1.12,1.12,0,0,0,1.11-1.12V46.06H43.36A1.11,1.11,0,0,0,44.47,45h0V37.72a1.11,1.11,0,0,0-1.11-1.11H27.81A4.67,4.67,0,0,0,24.47,38h0a4.76,4.76,0,0,0-1.38,3.34V56.87A1.12,1.12,0,0,0,24.2,58Z"/></g></g><g id="Group_4672" data-name="Group 4672" class="cls-6"><path id="Path_6328" data-name="Path 6328" class="cls-3" d="M381.05,199a6.27,6.27,0,0,0,1.72-.24,6.18,6.18,0,0,0,2-1,6.08,6.08,0,0,0,.85-.76,6.32,6.32,0,0,0-2.88-10.43,4.34,4.34,0,0,0-.6-.14,6,6,0,0,0-1.12-.1,6.32,6.32,0,0,0-6.25,5.3v0a6.77,6.77,0,0,0-.08,1A6.33,6.33,0,0,0,381.05,199Z"/><g id="Group_4671" data-name="Group 4671"><path id="Path_6329" data-name="Path 6329" class="cls-3" d="M361.92,193.65h7.22a1.12,1.12,0,0,0,1.12-1.11V181.73h10.82a1.12,1.12,0,0,0,1.11-1.12h0v-7.22a1.12,1.12,0,0,0-1.11-1.12H365.53a4.72,4.72,0,0,0-3.34,1.39h0a4.64,4.64,0,0,0-1.38,3.34v15.54a1.11,1.11,0,0,0,1.11,1.11Z"/></g></g><g id="Group_4674" data-name="Group 4674" class="cls-6"><path id="Path_6330" data-name="Path 6330" class="cls-3" d="M187.89,199a6.37,6.37,0,0,0,3.74-1.23,5.64,5.64,0,0,0,.86-.76,6.32,6.32,0,0,0-2.89-10.43,3.9,3.9,0,0,0-.59-.14,6.06,6.06,0,0,0-1.12-.1,6.32,6.32,0,0,0-6.25,5.3v0a5.66,5.66,0,0,0-.08,1A6.33,6.33,0,0,0,187.89,199Z"/><g id="Group_4673" data-name="Group 4673"><path id="Path_6331" data-name="Path 6331" class="cls-3" d="M168.76,193.65H176a1.12,1.12,0,0,0,1.12-1.11V181.73h10.81a1.12,1.12,0,0,0,1.12-1.12h0v-7.22a1.12,1.12,0,0,0-1.12-1.12H172.37a4.69,4.69,0,0,0-3.34,1.39h0a4.69,4.69,0,0,0-1.39,3.34v15.54a1.12,1.12,0,0,0,1.12,1.11Z"/></g></g><g id="Group_4676" data-name="Group 4676" class="cls-7"><path id="Path_6332" data-name="Path 6332" class="cls-3" d="M381.05,131.12a6.27,6.27,0,0,0,1.72-.24,6.39,6.39,0,0,0,2-1,6.79,6.79,0,0,0,.85-.76,6.34,6.34,0,0,0-2.88-10.44c-.2-.06-.4-.1-.6-.14a7,7,0,0,0-1.12-.1,6.33,6.33,0,0,0-6.25,5.3v0a6.74,6.74,0,0,0-.08,1A6.34,6.34,0,0,0,381.05,131.12Z"/><g id="Group_4675" data-name="Group 4675"><path id="Path_6333" data-name="Path 6333" class="cls-3" d="M361.92,125.82h7.22a1.12,1.12,0,0,0,1.12-1.12V113.89h10.82a1.11,1.11,0,0,0,1.11-1.11h0v-7.23a1.11,1.11,0,0,0-1.11-1.11H365.53a4.76,4.76,0,0,0-3.34,1.38h0a4.67,4.67,0,0,0-1.38,3.34V124.7a1.12,1.12,0,0,0,1.11,1.12Z"/></g></g><g id="Group_4678" data-name="Group 4678" class="cls-7"><path id="Path_6334" data-name="Path 6334" class="cls-3" d="M187.89,131.12a6.19,6.19,0,0,0,1.71-.24,6.39,6.39,0,0,0,2-1,6.23,6.23,0,0,0,.86-.76,6.33,6.33,0,0,0-2.89-10.44,5.63,5.63,0,0,0-.59-.14,7.06,7.06,0,0,0-1.12-.1,6.33,6.33,0,0,0-6.25,5.3v0a5.62,5.62,0,0,0-.08,1A6.34,6.34,0,0,0,187.89,131.12Z"/><g id="Group_4677" data-name="Group 4677"><path id="Path_6335" data-name="Path 6335" class="cls-3" d="M168.76,125.82H176a1.12,1.12,0,0,0,1.12-1.12V113.89h10.81a1.11,1.11,0,0,0,1.12-1.11h0v-7.23a1.12,1.12,0,0,0-1.12-1.11H172.37a4.72,4.72,0,0,0-3.34,1.38h0a4.72,4.72,0,0,0-1.39,3.34V124.7a1.12,1.12,0,0,0,1.12,1.12Z"/></g></g><g id="Group_4680" data-name="Group 4680" class="cls-8"><path id="Path_6336" data-name="Path 6336" class="cls-3" d="M381.05,63.28a6.27,6.27,0,0,0,1.72-.24,6.33,6.33,0,0,0,2.88-1.74,6.33,6.33,0,0,0-2.88-10.44,4.34,4.34,0,0,0-.6-.14,6,6,0,0,0-1.12-.1,6.33,6.33,0,0,0-6.25,5.3v0a6.87,6.87,0,0,0-.08,1A6.32,6.32,0,0,0,381.05,63.28Z"/><g id="Group_4679" data-name="Group 4679"><path id="Path_6337" data-name="Path 6337" class="cls-3" d="M361.92,58h7.22a1.12,1.12,0,0,0,1.12-1.12V46.06h10.82A1.11,1.11,0,0,0,382.19,45h0V37.72a1.11,1.11,0,0,0-1.11-1.11H365.53A4.67,4.67,0,0,0,362.19,38h0a4.67,4.67,0,0,0-1.38,3.34V56.87A1.12,1.12,0,0,0,361.92,58Z"/></g></g><g id="Group_4682" data-name="Group 4682" class="cls-8"><path id="Path_6338" data-name="Path 6338" class="cls-3" d="M187.89,63.28A6.19,6.19,0,0,0,189.6,63a6,6,0,0,0,2-1,5.57,5.57,0,0,0,.86-.75,6.33,6.33,0,0,0-.25-8.95,6.42,6.42,0,0,0-2.64-1.49,3.9,3.9,0,0,0-.59-.14,6.06,6.06,0,0,0-1.12-.1,6.33,6.33,0,0,0-6.25,5.3v0a5.73,5.73,0,0,0-.08,1A6.32,6.32,0,0,0,187.89,63.28Z"/><g id="Group_4681" data-name="Group 4681"><path id="Path_6339" data-name="Path 6339" class="cls-3" d="M168.76,58H176a1.12,1.12,0,0,0,1.12-1.12V46.06h10.81A1.12,1.12,0,0,0,189,45h0V37.72a1.12,1.12,0,0,0-1.12-1.11H172.37A4.64,4.64,0,0,0,169,38h0a4.72,4.72,0,0,0-1.39,3.34V56.87A1.12,1.12,0,0,0,168.76,58Z"/></g></g><g id="Group_4684" data-name="Group 4684" class="cls-6"><path id="Path_6340" data-name="Path 6340" class="cls-3" d="M332.44,199a6.27,6.27,0,0,0,1.72-.24,6.18,6.18,0,0,0,2-1A6.08,6.08,0,0,0,337,197a6.32,6.32,0,0,0-2.88-10.43,4.34,4.34,0,0,0-.6-.14,6,6,0,0,0-1.12-.1,6.32,6.32,0,0,0-6.25,5.3v0a6.77,6.77,0,0,0-.08,1A6.33,6.33,0,0,0,332.44,199Z"/><g id="Group_4683" data-name="Group 4683"><path id="Path_6341" data-name="Path 6341" class="cls-3" d="M313.31,193.65h7.22a1.12,1.12,0,0,0,1.12-1.11V181.73h10.81a1.12,1.12,0,0,0,1.12-1.12h0v-7.22a1.12,1.12,0,0,0-1.12-1.12H316.92a4.71,4.71,0,0,0-3.34,1.39h0a4.69,4.69,0,0,0-1.39,3.34v15.54a1.13,1.13,0,0,0,1.12,1.11Z"/></g></g><g id="Group_4686" data-name="Group 4686" class="cls-6"><path id="Path_6342" data-name="Path 6342" class="cls-3" d="M139.92,199a6.37,6.37,0,0,0,3.74-1.23,5.13,5.13,0,0,0,.85-.76,6.31,6.31,0,0,0-2.88-10.43,3.9,3.9,0,0,0-.59-.14,6.06,6.06,0,0,0-1.12-.1,6.32,6.32,0,0,0-6.25,5.3v0a5.66,5.66,0,0,0-.08,1A6.33,6.33,0,0,0,139.92,199Z"/><g id="Group_4685" data-name="Group 4685"><path id="Path_6343" data-name="Path 6343" class="cls-3" d="M120.78,193.65H128a1.13,1.13,0,0,0,1.12-1.11V181.73h10.81a1.12,1.12,0,0,0,1.12-1.12h0v-7.22a1.12,1.12,0,0,0-1.12-1.12H124.4a4.69,4.69,0,0,0-3.34,1.39h0a4.69,4.69,0,0,0-1.39,3.34v15.54a1.12,1.12,0,0,0,1.12,1.11Z"/></g></g><g id="Group_4688" data-name="Group 4688" class="cls-7"><path id="Path_6344" data-name="Path 6344" class="cls-3" d="M332.44,131.12a6.27,6.27,0,0,0,1.72-.24,6.39,6.39,0,0,0,2-1,6.79,6.79,0,0,0,.85-.76,6.34,6.34,0,0,0-2.88-10.44c-.2-.06-.4-.1-.6-.14a7,7,0,0,0-1.12-.1,6.33,6.33,0,0,0-6.25,5.3v0a6.74,6.74,0,0,0-.08,1A6.34,6.34,0,0,0,332.44,131.12Z"/><g id="Group_4687" data-name="Group 4687"><path id="Path_6345" data-name="Path 6345" class="cls-3" d="M313.31,125.82h7.22a1.12,1.12,0,0,0,1.12-1.12V113.89h10.81a1.11,1.11,0,0,0,1.12-1.11h0v-7.23a1.12,1.12,0,0,0-1.12-1.11H316.92a4.74,4.74,0,0,0-3.34,1.38h0a4.72,4.72,0,0,0-1.39,3.34V124.7a1.13,1.13,0,0,0,1.12,1.12Z"/></g></g><g id="Group_4690" data-name="Group 4690" class="cls-7"><path id="Path_6346" data-name="Path 6346" class="cls-3" d="M139.92,131.12a6.19,6.19,0,0,0,1.71-.24,6.39,6.39,0,0,0,2-1,5.62,5.62,0,0,0,.85-.76,6.33,6.33,0,0,0-2.88-10.44,5.63,5.63,0,0,0-.59-.14,7.06,7.06,0,0,0-1.12-.1,6.33,6.33,0,0,0-6.25,5.3v0a5.62,5.62,0,0,0-.08,1A6.34,6.34,0,0,0,139.92,131.12Z"/><g id="Group_4689" data-name="Group 4689"><path id="Path_6347" data-name="Path 6347" class="cls-3" d="M120.78,125.82H128a1.13,1.13,0,0,0,1.12-1.12V113.89h10.81a1.11,1.11,0,0,0,1.12-1.11h0v-7.23a1.12,1.12,0,0,0-1.12-1.11H124.4a4.72,4.72,0,0,0-3.34,1.38h0a4.72,4.72,0,0,0-1.39,3.34V124.7a1.12,1.12,0,0,0,1.12,1.12Z"/></g></g><g id="Group_4692" data-name="Group 4692" class="cls-8"><path id="Path_6348" data-name="Path 6348" class="cls-3" d="M332.44,63.28a6.27,6.27,0,0,0,1.72-.24A6.33,6.33,0,0,0,337,61.3a6.33,6.33,0,0,0-2.88-10.44,4.34,4.34,0,0,0-.6-.14,6,6,0,0,0-1.12-.1,6.33,6.33,0,0,0-6.25,5.3v0a6.87,6.87,0,0,0-.08,1A6.32,6.32,0,0,0,332.44,63.28Z"/><g id="Group_4691" data-name="Group 4691"><path id="Path_6349" data-name="Path 6349" class="cls-3" d="M313.31,58h7.22a1.12,1.12,0,0,0,1.12-1.12V46.06h10.81A1.12,1.12,0,0,0,333.58,45h0V37.72a1.12,1.12,0,0,0-1.12-1.11H316.92A4.66,4.66,0,0,0,313.58,38h0a4.72,4.72,0,0,0-1.39,3.34V56.87A1.14,1.14,0,0,0,313.31,58Z"/></g></g><g id="Group_4694" data-name="Group 4694" class="cls-8"><path id="Path_6350" data-name="Path 6350" class="cls-3" d="M139.92,63.28a6.19,6.19,0,0,0,1.71-.24,6,6,0,0,0,2-1,5.07,5.07,0,0,0,.85-.75,6.32,6.32,0,0,0-.24-8.95,6.42,6.42,0,0,0-2.64-1.49,3.9,3.9,0,0,0-.59-.14,6.06,6.06,0,0,0-1.12-.1,6.33,6.33,0,0,0-6.25,5.3v0a5.73,5.73,0,0,0-.08,1A6.32,6.32,0,0,0,139.92,63.28Z"/><g id="Group_4693" data-name="Group 4693"><path id="Path_6351" data-name="Path 6351" class="cls-3" d="M120.78,58H128a1.13,1.13,0,0,0,1.12-1.12V46.06h10.81A1.12,1.12,0,0,0,141.06,45h0V37.72a1.12,1.12,0,0,0-1.12-1.11H124.4A4.64,4.64,0,0,0,121.06,38h0a4.72,4.72,0,0,0-1.39,3.34V56.87A1.12,1.12,0,0,0,120.79,58Z"/></g></g><g id="Group_4696" data-name="Group 4696" class="cls-6"><path id="Path_6352" data-name="Path 6352" class="cls-3" d="M429,199a6.27,6.27,0,0,0,1.72-.24,6.18,6.18,0,0,0,2-1,5.57,5.57,0,0,0,.85-.76,6.32,6.32,0,0,0-2.88-10.43,4.34,4.34,0,0,0-.6-.14,6,6,0,0,0-1.12-.1,6.33,6.33,0,0,0-6.25,5.3v0a6.77,6.77,0,0,0-.08,1A6.34,6.34,0,0,0,429,199Z"/><g id="Group_4695" data-name="Group 4695"><path id="Path_6353" data-name="Path 6353" class="cls-3" d="M409.89,193.65h7.22a1.12,1.12,0,0,0,1.12-1.11V181.73h10.82a1.12,1.12,0,0,0,1.11-1.12h0v-7.22a1.12,1.12,0,0,0-1.11-1.12H413.5a4.72,4.72,0,0,0-3.34,1.39h0a4.68,4.68,0,0,0-1.38,3.34v15.54a1.11,1.11,0,0,0,1.11,1.11Z"/></g></g><g id="Group_4698" data-name="Group 4698" class="cls-6"><path id="Path_6354" data-name="Path 6354" class="cls-3" d="M236.5,199a6.37,6.37,0,0,0,3.74-1.23,5.64,5.64,0,0,0,.86-.76,6.32,6.32,0,0,0-2.89-10.43,3.9,3.9,0,0,0-.59-.14,6.06,6.06,0,0,0-1.12-.1,6.32,6.32,0,0,0-6.25,5.3v0a5.66,5.66,0,0,0-.08,1A6.33,6.33,0,0,0,236.5,199Z"/><g id="Group_4697" data-name="Group 4697"><path id="Path_6355" data-name="Path 6355" class="cls-3" d="M217.37,193.65h7.22a1.12,1.12,0,0,0,1.12-1.11V181.73h10.81a1.12,1.12,0,0,0,1.12-1.12h0v-7.22a1.12,1.12,0,0,0-1.12-1.12H221a4.71,4.71,0,0,0-3.34,1.39h0a4.69,4.69,0,0,0-1.39,3.34v15.54a1.12,1.12,0,0,0,1.12,1.11Z"/></g></g><g id="Group_4700" data-name="Group 4700" class="cls-7"><path id="Path_6356" data-name="Path 6356" class="cls-3" d="M429,131.12a6.27,6.27,0,0,0,1.72-.24,6.39,6.39,0,0,0,2-1,6.15,6.15,0,0,0,.85-.76,6.34,6.34,0,0,0-2.88-10.44c-.2-.06-.4-.1-.6-.14a7,7,0,0,0-1.12-.1,6.34,6.34,0,0,0-6.25,5.3v0a6.74,6.74,0,0,0-.08,1A6.35,6.35,0,0,0,429,131.12Z"/><g id="Group_4699" data-name="Group 4699"><path id="Path_6357" data-name="Path 6357" class="cls-3" d="M409.89,125.82h7.22a1.12,1.12,0,0,0,1.12-1.12V113.89h10.82a1.11,1.11,0,0,0,1.11-1.11h0v-7.23a1.11,1.11,0,0,0-1.11-1.11H413.5a4.76,4.76,0,0,0-3.34,1.38h0a4.71,4.71,0,0,0-1.38,3.34V124.7a1.12,1.12,0,0,0,1.11,1.12Z"/></g></g><g id="Group_4702" data-name="Group 4702" class="cls-7"><path id="Path_6358" data-name="Path 6358" class="cls-3" d="M236.5,131.12a6.14,6.14,0,0,0,1.71-.24,6.33,6.33,0,0,0,0-12.19,5.63,5.63,0,0,0-.59-.14,7.06,7.06,0,0,0-1.12-.1,6.33,6.33,0,0,0-6.25,5.3v0a5.62,5.62,0,0,0-.08,1A6.34,6.34,0,0,0,236.5,131.12Z"/><g id="Group_4701" data-name="Group 4701"><path id="Path_6359" data-name="Path 6359" class="cls-3" d="M217.37,125.82h7.22a1.12,1.12,0,0,0,1.12-1.12V113.89h10.81a1.11,1.11,0,0,0,1.12-1.11h0v-7.23a1.12,1.12,0,0,0-1.12-1.11H221a4.74,4.74,0,0,0-3.34,1.38h0a4.72,4.72,0,0,0-1.39,3.34V124.7a1.12,1.12,0,0,0,1.12,1.12Z"/></g></g><g id="Group_4704" data-name="Group 4704" class="cls-8"><path id="Path_6360" data-name="Path 6360" class="cls-3" d="M429,63.28a6.27,6.27,0,0,0,1.72-.24,6,6,0,0,0,2-1,5.5,5.5,0,0,0,.85-.75,6.33,6.33,0,0,0-2.88-10.44,4.34,4.34,0,0,0-.6-.14,6,6,0,0,0-1.12-.1,6.34,6.34,0,0,0-6.25,5.3v0a6.87,6.87,0,0,0-.08,1A6.33,6.33,0,0,0,429,63.28Z"/><g id="Group_4703" data-name="Group 4703"><path id="Path_6361" data-name="Path 6361" class="cls-3" d="M409.89,58h7.22a1.12,1.12,0,0,0,1.12-1.12V46.06h10.82A1.11,1.11,0,0,0,430.16,45h0V37.72a1.11,1.11,0,0,0-1.11-1.11H413.5A4.67,4.67,0,0,0,410.16,38h0a4.71,4.71,0,0,0-1.38,3.34V56.87A1.12,1.12,0,0,0,409.89,58Z"/></g></g><g id="Group_4706" data-name="Group 4706" class="cls-8"><path id="Path_6362" data-name="Path 6362" class="cls-3" d="M236.5,63.28a6.14,6.14,0,0,0,1.71-.24,5.9,5.9,0,0,0,2-1,5.57,5.57,0,0,0,.86-.75,6.33,6.33,0,0,0-.25-8.95,6.42,6.42,0,0,0-2.64-1.49,3.9,3.9,0,0,0-.59-.14,6.06,6.06,0,0,0-1.12-.1,6.33,6.33,0,0,0-6.25,5.3v0a5.73,5.73,0,0,0-.08,1A6.32,6.32,0,0,0,236.5,63.28Z"/><g id="Group_4705" data-name="Group 4705"><path id="Path_6363" data-name="Path 6363" class="cls-3" d="M217.37,58h7.22a1.12,1.12,0,0,0,1.12-1.12V46.06h10.81A1.12,1.12,0,0,0,237.64,45h0V37.72a1.12,1.12,0,0,0-1.12-1.11H221A4.66,4.66,0,0,0,217.64,38h0a4.72,4.72,0,0,0-1.39,3.34V56.87A1.12,1.12,0,0,0,217.37,58Z"/></g></g></g></svg>