<svg xmlns="http://www.w3.org/2000/svg" xmlns:xlink="http://www.w3.org/1999/xlink" width="764" height="440" viewBox="0 0 764 440">
  <defs>
    <clipPath id="clip-path">
      <rect id="Rectangle_3832" data-name="Rectangle 3832" width="764" height="440" transform="translate(573.542 0.189)" fill="#fff"/>
    </clipPath>
  </defs>
  <g id="Mask_Group_36" data-name="Mask Group 36" transform="translate(-573.542 -0.189)" clip-path="url(#clip-path)">
    <g id="Group_4953" data-name="Group 4953" transform="translate(1365.753 17.094) rotate(90)" opacity="0.5">
      <g id="Group_4820" data-name="Group 4820" transform="translate(346.527 341.64)" opacity="0.7">
        <path id="Path_7183" data-name="Path 7183" d="M21.561,10.779a10.636,10.636,0,0,0-.406-2.922A10.508,10.508,0,0,0,19.468,4.4a10.163,10.163,0,0,0-1.285-1.452A10.774,10.774,0,0,0,.406,7.857,8.222,8.222,0,0,0,.174,8.87,10.46,10.46,0,0,0,0,10.779,10.763,10.763,0,0,0,9.026,21.417a.093.093,0,0,0,.038.005,10.163,10.163,0,0,0,1.716.139,10.781,10.781,0,0,0,10.78-10.783Z" transform="translate(23.866 0)" fill="none" stroke="#052a3a" stroke-width="1"/>
        <g id="Group_4819" data-name="Group 4819" transform="translate(0 8.836)">
          <path id="Path_7184" data-name="Path 7184" d="M36.41,34.52v-12.3a1.909,1.909,0,0,0-1.9-1.9H16.1V1.9A1.9,1.9,0,0,0,14.2,0H1.9A1.9,1.9,0,0,0,0,1.9v26.47a8.011,8.011,0,0,0,2.356,5.69h0a8.023,8.023,0,0,0,5.69,2.36H34.507a1.909,1.909,0,0,0,1.9-1.9Z" transform="translate(0 0)" fill="none" stroke="#052a3a" stroke-width="1"/>
        </g>
      </g>
      <g id="Group_4822" data-name="Group 4822" transform="translate(346.527 668.391)" opacity="0.7">
        <path id="Path_7185" data-name="Path 7185" d="M21.561,10.779a10.636,10.636,0,0,0-.406-2.922A10.508,10.508,0,0,0,19.468,4.4a10.163,10.163,0,0,0-1.285-1.452A10.774,10.774,0,0,0,.406,7.857,8.222,8.222,0,0,0,.174,8.87,10.46,10.46,0,0,0,0,10.779,10.763,10.763,0,0,0,9.026,21.417a.093.093,0,0,0,.038.005,10.163,10.163,0,0,0,1.716.139,10.781,10.781,0,0,0,10.78-10.783Z" transform="translate(23.866 0)" fill="none" stroke="#052a3a" stroke-width="1"/>
        <g id="Group_4821" data-name="Group 4821" transform="translate(0 8.836)">
          <path id="Path_7186" data-name="Path 7186" d="M36.41,34.52v-12.3a1.909,1.909,0,0,0-1.9-1.9H16.1V1.9A1.9,1.9,0,0,0,14.2,0H1.9A1.9,1.9,0,0,0,0,1.9v26.47a8.011,8.011,0,0,0,2.356,5.69h0a8.023,8.023,0,0,0,5.69,2.36H34.507a1.909,1.909,0,0,0,1.9-1.9Z" transform="translate(0 0)" fill="none" stroke="#052a3a" stroke-width="1"/>
        </g>
      </g>
      <g id="Group_4824" data-name="Group 4824" transform="translate(346.527 423.327)" opacity="0.7">
        <path id="Path_7187" data-name="Path 7187" d="M21.561,10.779a10.636,10.636,0,0,0-.406-2.922A10.508,10.508,0,0,0,19.468,4.4a10.163,10.163,0,0,0-1.285-1.452A10.774,10.774,0,0,0,.406,7.857,8.222,8.222,0,0,0,.174,8.87,10.46,10.46,0,0,0,0,10.779,10.763,10.763,0,0,0,9.026,21.417a.093.093,0,0,0,.038.005,10.163,10.163,0,0,0,1.716.139,10.781,10.781,0,0,0,10.78-10.783Z" transform="translate(23.866 0)" fill="none" stroke="#052a3a" stroke-width="1"/>
        <g id="Group_4823" data-name="Group 4823" transform="translate(0 8.836)">
          <path id="Path_7188" data-name="Path 7188" d="M36.41,34.52v-12.3a1.909,1.909,0,0,0-1.9-1.9H16.1V1.9A1.9,1.9,0,0,0,14.2,0H1.9A1.9,1.9,0,0,0,0,1.9v26.47a8.011,8.011,0,0,0,2.356,5.69h0a8.023,8.023,0,0,0,5.69,2.36H34.507a1.909,1.909,0,0,0,1.9-1.9Z" transform="translate(0 0)" fill="none" stroke="#052a3a" stroke-width="1"/>
        </g>
      </g>
      <g id="Group_4826" data-name="Group 4826" transform="translate(346.527 750.078)" opacity="0.7">
        <path id="Path_7189" data-name="Path 7189" d="M21.561,10.779a10.636,10.636,0,0,0-.406-2.922A10.508,10.508,0,0,0,19.468,4.4a10.163,10.163,0,0,0-1.285-1.452A10.774,10.774,0,0,0,.406,7.857,8.222,8.222,0,0,0,.174,8.87,10.46,10.46,0,0,0,0,10.779,10.763,10.763,0,0,0,9.026,21.417a.093.093,0,0,0,.038.005,10.163,10.163,0,0,0,1.716.139,10.781,10.781,0,0,0,10.78-10.783Z" transform="translate(23.866 0)" fill="none" stroke="#052a3a" stroke-width="1"/>
        <g id="Group_4825" data-name="Group 4825" transform="translate(0 8.836)">
          <path id="Path_7190" data-name="Path 7190" d="M36.41,34.52v-12.3a1.909,1.909,0,0,0-1.9-1.9H16.1V1.9A1.9,1.9,0,0,0,14.2,0H1.9A1.9,1.9,0,0,0,0,1.9v26.47a8.011,8.011,0,0,0,2.356,5.69h0a8.023,8.023,0,0,0,5.69,2.36H34.507a1.909,1.909,0,0,0,1.9-1.9Z" transform="translate(0 0)" fill="none" stroke="#052a3a" stroke-width="1"/>
        </g>
      </g>
      <g id="Group_4828" data-name="Group 4828" transform="translate(346.527 177.175)" opacity="0.7">
        <path id="Path_7191" data-name="Path 7191" d="M21.561,10.779a10.636,10.636,0,0,0-.406-2.922A10.508,10.508,0,0,0,19.468,4.4a10.163,10.163,0,0,0-1.285-1.452A10.774,10.774,0,0,0,.406,7.857,8.222,8.222,0,0,0,.174,8.87,10.46,10.46,0,0,0,0,10.779,10.763,10.763,0,0,0,9.026,21.417a.093.093,0,0,0,.038.005,10.163,10.163,0,0,0,1.716.139,10.781,10.781,0,0,0,10.78-10.783Z" transform="translate(23.866 0)" fill="none" stroke="#052a3a" stroke-width="1"/>
        <g id="Group_4827" data-name="Group 4827" transform="translate(0 8.836)">
          <path id="Path_7192" data-name="Path 7192" d="M36.41,34.52v-12.3a1.909,1.909,0,0,0-1.9-1.9H16.1V1.9A1.9,1.9,0,0,0,14.2,0H1.9A1.9,1.9,0,0,0,0,1.9v26.47a8.011,8.011,0,0,0,2.356,5.69h0a8.023,8.023,0,0,0,5.69,2.36H34.507a1.909,1.909,0,0,0,1.9-1.9Z" transform="translate(0 0)" fill="none" stroke="#052a3a" stroke-width="1"/>
        </g>
      </g>
      <g id="Group_4830" data-name="Group 4830" transform="translate(346.527 505.015)" opacity="0.7">
        <path id="Path_7193" data-name="Path 7193" d="M21.561,10.779a10.636,10.636,0,0,0-.406-2.922A10.508,10.508,0,0,0,19.468,4.4a10.163,10.163,0,0,0-1.285-1.452A10.774,10.774,0,0,0,.406,7.857,8.222,8.222,0,0,0,.174,8.87,10.46,10.46,0,0,0,0,10.779,10.763,10.763,0,0,0,9.026,21.417a.093.093,0,0,0,.038.005,10.163,10.163,0,0,0,1.716.139,10.781,10.781,0,0,0,10.78-10.783Z" transform="translate(23.866 0)" fill="none" stroke="#052a3a" stroke-width="1"/>
        <g id="Group_4829" data-name="Group 4829" transform="translate(0 8.836)">
          <path id="Path_7194" data-name="Path 7194" d="M36.41,34.52v-12.3a1.909,1.909,0,0,0-1.9-1.9H16.1V1.9A1.9,1.9,0,0,0,14.2,0H1.9A1.9,1.9,0,0,0,0,1.9v26.47a8.011,8.011,0,0,0,2.356,5.69h0a8.023,8.023,0,0,0,5.69,2.36H34.507a1.909,1.909,0,0,0,1.9-1.9Z" transform="translate(0 0)" fill="none" stroke="#052a3a" stroke-width="1"/>
        </g>
      </g>
      <g id="Group_4832" data-name="Group 4832" transform="translate(346.527 259.952)" opacity="0.7">
        <path id="Path_7195" data-name="Path 7195" d="M21.561,10.779a10.636,10.636,0,0,0-.406-2.922A10.508,10.508,0,0,0,19.468,4.4a10.163,10.163,0,0,0-1.285-1.452A10.774,10.774,0,0,0,.406,7.857,8.222,8.222,0,0,0,.174,8.87,10.46,10.46,0,0,0,0,10.779,10.763,10.763,0,0,0,9.026,21.417a.093.093,0,0,0,.038.005,10.163,10.163,0,0,0,1.716.139,10.781,10.781,0,0,0,10.78-10.783Z" transform="translate(23.866 0)" fill="none" stroke="#052a3a" stroke-width="1"/>
        <g id="Group_4831" data-name="Group 4831" transform="translate(0 8.836)">
          <path id="Path_7196" data-name="Path 7196" d="M36.41,34.52v-12.3a1.909,1.909,0,0,0-1.9-1.9H16.1V1.9A1.9,1.9,0,0,0,14.2,0H1.9A1.9,1.9,0,0,0,0,1.9v26.47a8.011,8.011,0,0,0,2.356,5.69h0a8.023,8.023,0,0,0,5.69,2.36H34.507a1.909,1.909,0,0,0,1.9-1.9Z" transform="translate(0 0)" fill="none" stroke="#052a3a" stroke-width="1"/>
        </g>
      </g>
      <g id="Group_4834" data-name="Group 4834" transform="translate(346.527 586.703)" opacity="0.7">
        <path id="Path_7197" data-name="Path 7197" d="M21.561,10.779a10.636,10.636,0,0,0-.406-2.922A10.508,10.508,0,0,0,19.468,4.4a10.163,10.163,0,0,0-1.285-1.452A10.774,10.774,0,0,0,.406,7.857,8.222,8.222,0,0,0,.174,8.87,10.46,10.46,0,0,0,0,10.779,10.763,10.763,0,0,0,9.026,21.417a.093.093,0,0,0,.038.005,10.163,10.163,0,0,0,1.716.139,10.781,10.781,0,0,0,10.78-10.783Z" transform="translate(23.866 0)" fill="none" stroke="#052a3a" stroke-width="1"/>
        <g id="Group_4833" data-name="Group 4833" transform="translate(0 8.836)">
          <path id="Path_7198" data-name="Path 7198" d="M36.41,34.52v-12.3a1.909,1.909,0,0,0-1.9-1.9H16.1V1.9A1.9,1.9,0,0,0,14.2,0H1.9A1.9,1.9,0,0,0,0,1.9v26.47a8.011,8.011,0,0,0,2.356,5.69h0a8.023,8.023,0,0,0,5.69,2.36H34.507a1.909,1.909,0,0,0,1.9-1.9Z" transform="translate(0 0)" fill="none" stroke="#052a3a" stroke-width="1"/>
        </g>
      </g>
      <g id="Group_4836" data-name="Group 4836" transform="translate(346.527 95.488)" opacity="0.7">
        <path id="Path_7199" data-name="Path 7199" d="M21.561,10.779a10.636,10.636,0,0,0-.406-2.922A10.508,10.508,0,0,0,19.468,4.4a10.163,10.163,0,0,0-1.285-1.452A10.774,10.774,0,0,0,.406,7.857,8.222,8.222,0,0,0,.174,8.87,10.46,10.46,0,0,0,0,10.779,10.763,10.763,0,0,0,9.026,21.417a.093.093,0,0,0,.038.005,10.163,10.163,0,0,0,1.716.139,10.781,10.781,0,0,0,10.78-10.783Z" transform="translate(23.866 0)" fill="none" stroke="#052a3a" stroke-width="1"/>
        <g id="Group_4835" data-name="Group 4835" transform="translate(0 8.836)">
          <path id="Path_7200" data-name="Path 7200" d="M36.41,34.52v-12.3a1.909,1.909,0,0,0-1.9-1.9H16.1V1.9A1.9,1.9,0,0,0,14.2,0H1.9A1.9,1.9,0,0,0,0,1.9v26.47a8.011,8.011,0,0,0,2.356,5.69h0a8.023,8.023,0,0,0,5.69,2.36H34.507a1.909,1.909,0,0,0,1.9-1.9Z" transform="translate(0 0)" fill="none" stroke="#052a3a" stroke-width="1"/>
        </g>
      </g>
      <g id="Group_4838" data-name="Group 4838" transform="translate(346.527 0)" opacity="0.7">
        <path id="Path_7201" data-name="Path 7201" d="M21.561,10.779a10.636,10.636,0,0,0-.406-2.922A10.508,10.508,0,0,0,19.468,4.4a10.163,10.163,0,0,0-1.285-1.452A10.774,10.774,0,0,0,.406,7.857,8.222,8.222,0,0,0,.174,8.87,10.46,10.46,0,0,0,0,10.779,10.763,10.763,0,0,0,9.026,21.417a.093.093,0,0,0,.038.005,10.163,10.163,0,0,0,1.716.139,10.781,10.781,0,0,0,10.78-10.783Z" transform="translate(23.866 0)" fill="none" stroke="#052a3a" stroke-width="1"/>
        <g id="Group_4837" data-name="Group 4837" transform="translate(0 8.836)">
          <path id="Path_7202" data-name="Path 7202" d="M36.41,34.52v-12.3a1.909,1.909,0,0,0-1.9-1.9H16.1V1.9A1.9,1.9,0,0,0,14.2,0H1.9A1.9,1.9,0,0,0,0,1.9v26.47a8.011,8.011,0,0,0,2.356,5.69h0a8.023,8.023,0,0,0,5.69,2.36H34.507a1.909,1.909,0,0,0,1.9-1.9Z" transform="translate(0 0)" fill="none" stroke="#052a3a" stroke-width="1"/>
        </g>
      </g>
      <g id="Group_4840" data-name="Group 4840" transform="translate(231.018 347.086)" opacity="0.5">
        <path id="Path_7203" data-name="Path 7203" d="M21.561,10.779a10.636,10.636,0,0,0-.406-2.922A10.508,10.508,0,0,0,19.468,4.4a10.163,10.163,0,0,0-1.285-1.452A10.774,10.774,0,0,0,.406,7.857,8.222,8.222,0,0,0,.174,8.87,10.46,10.46,0,0,0,0,10.779,10.763,10.763,0,0,0,9.026,21.417a.093.093,0,0,0,.038.005,10.163,10.163,0,0,0,1.716.139,10.781,10.781,0,0,0,10.78-10.783Z" transform="translate(23.866 0)" fill="none" stroke="#052a3a" stroke-width="1"/>
        <g id="Group_4839" data-name="Group 4839" transform="translate(0 8.836)">
          <path id="Path_7204" data-name="Path 7204" d="M36.41,34.52v-12.3a1.909,1.909,0,0,0-1.9-1.9H16.1V1.9A1.9,1.9,0,0,0,14.2,0H1.9A1.9,1.9,0,0,0,0,1.9v26.47a8.011,8.011,0,0,0,2.356,5.69h0a8.023,8.023,0,0,0,5.69,2.36H34.507a1.909,1.909,0,0,0,1.9-1.9Z" transform="translate(0 0)" fill="none" stroke="#052a3a" stroke-width="1"/>
        </g>
      </g>
      <g id="Group_4842" data-name="Group 4842" transform="translate(231.018 669.48)" opacity="0.5">
        <path id="Path_7205" data-name="Path 7205" d="M21.561,10.779a10.636,10.636,0,0,0-.406-2.922A10.508,10.508,0,0,0,19.468,4.4a10.163,10.163,0,0,0-1.285-1.452A10.774,10.774,0,0,0,.406,7.857,8.222,8.222,0,0,0,.174,8.87,10.46,10.46,0,0,0,0,10.779,10.763,10.763,0,0,0,9.026,21.417a.093.093,0,0,0,.038.005,10.163,10.163,0,0,0,1.716.139,10.781,10.781,0,0,0,10.78-10.783Z" transform="translate(23.866 0)" fill="none" stroke="#052a3a" stroke-width="1"/>
        <g id="Group_4841" data-name="Group 4841" transform="translate(0 8.836)">
          <path id="Path_7206" data-name="Path 7206" d="M36.41,34.52v-12.3a1.909,1.909,0,0,0-1.9-1.9H16.1V1.9A1.9,1.9,0,0,0,14.2,0H1.9A1.9,1.9,0,0,0,0,1.9v26.47a8.011,8.011,0,0,0,2.356,5.69h0a8.023,8.023,0,0,0,5.69,2.36H34.507a1.909,1.909,0,0,0,1.9-1.9Z" transform="translate(0 0)" fill="none" stroke="#052a3a" stroke-width="1"/>
        </g>
      </g>
      <g id="Group_4844" data-name="Group 4844" transform="translate(231.018 750.078)" opacity="0.5">
        <path id="Path_7207" data-name="Path 7207" d="M21.561,10.779a10.636,10.636,0,0,0-.406-2.922A10.508,10.508,0,0,0,19.468,4.4a10.163,10.163,0,0,0-1.285-1.452A10.774,10.774,0,0,0,.406,7.857,8.222,8.222,0,0,0,.174,8.87,10.46,10.46,0,0,0,0,10.779,10.763,10.763,0,0,0,9.026,21.417a.093.093,0,0,0,.038.005,10.163,10.163,0,0,0,1.716.139,10.781,10.781,0,0,0,10.78-10.783Z" transform="translate(23.866 0)" fill="none" stroke="#052a3a" stroke-width="1"/>
        <g id="Group_4843" data-name="Group 4843" transform="translate(0 8.836)">
          <path id="Path_7208" data-name="Path 7208" d="M36.41,34.52v-12.3a1.909,1.909,0,0,0-1.9-1.9H16.1V1.9A1.9,1.9,0,0,0,14.2,0H1.9A1.9,1.9,0,0,0,0,1.9v26.47a8.011,8.011,0,0,0,2.356,5.69h0a8.023,8.023,0,0,0,5.69,2.36H34.507a1.909,1.909,0,0,0,1.9-1.9Z" transform="translate(0 0)" fill="none" stroke="#052a3a" stroke-width="1"/>
        </g>
      </g>
      <g id="Group_4846" data-name="Group 4846" transform="translate(115.509 347.086)" opacity="0.3">
        <path id="Path_7209" data-name="Path 7209" d="M21.561,10.779a10.636,10.636,0,0,0-.406-2.922A10.508,10.508,0,0,0,19.468,4.4a10.163,10.163,0,0,0-1.285-1.452A10.774,10.774,0,0,0,.406,7.857,8.222,8.222,0,0,0,.174,8.87,10.46,10.46,0,0,0,0,10.779,10.763,10.763,0,0,0,9.026,21.417a.093.093,0,0,0,.038.005,10.163,10.163,0,0,0,1.716.139,10.781,10.781,0,0,0,10.78-10.783Z" transform="translate(23.866 0)" fill="none" stroke="#052a3a" stroke-width="1"/>
        <g id="Group_4845" data-name="Group 4845" transform="translate(0 8.836)">
          <path id="Path_7210" data-name="Path 7210" d="M36.41,34.52v-12.3a1.909,1.909,0,0,0-1.9-1.9H16.1V1.9A1.9,1.9,0,0,0,14.2,0H1.9A1.9,1.9,0,0,0,0,1.9v26.47a8.011,8.011,0,0,0,2.356,5.69h0a8.023,8.023,0,0,0,5.69,2.36H34.507a1.909,1.909,0,0,0,1.9-1.9Z" transform="translate(0 0)" fill="none" stroke="#052a3a" stroke-width="1"/>
        </g>
      </g>
      <g id="Group_4848" data-name="Group 4848" transform="translate(115.509 669.48)" opacity="0.3">
        <path id="Path_7211" data-name="Path 7211" d="M21.561,10.779a10.636,10.636,0,0,0-.406-2.922A10.508,10.508,0,0,0,19.468,4.4a10.163,10.163,0,0,0-1.285-1.452A10.774,10.774,0,0,0,.406,7.857,8.222,8.222,0,0,0,.174,8.87,10.46,10.46,0,0,0,0,10.779,10.763,10.763,0,0,0,9.026,21.417a.093.093,0,0,0,.038.005,10.163,10.163,0,0,0,1.716.139,10.781,10.781,0,0,0,10.78-10.783Z" transform="translate(23.866 0)" fill="none" stroke="#052a3a" stroke-width="1"/>
        <g id="Group_4847" data-name="Group 4847" transform="translate(0 8.836)">
          <path id="Path_7212" data-name="Path 7212" d="M36.41,34.52v-12.3a1.909,1.909,0,0,0-1.9-1.9H16.1V1.9A1.9,1.9,0,0,0,14.2,0H1.9A1.9,1.9,0,0,0,0,1.9v26.47a8.011,8.011,0,0,0,2.356,5.69h0a8.023,8.023,0,0,0,5.69,2.36H34.507a1.909,1.909,0,0,0,1.9-1.9Z" transform="translate(0 0)" fill="none" stroke="#052a3a" stroke-width="1"/>
        </g>
      </g>
      <g id="Group_4850" data-name="Group 4850" transform="translate(115.509 750.078)" opacity="0.3">
        <path id="Path_7213" data-name="Path 7213" d="M21.561,10.779a10.636,10.636,0,0,0-.406-2.922A10.508,10.508,0,0,0,19.468,4.4a10.163,10.163,0,0,0-1.285-1.452A10.774,10.774,0,0,0,.406,7.857,8.222,8.222,0,0,0,.174,8.87,10.46,10.46,0,0,0,0,10.779,10.763,10.763,0,0,0,9.026,21.417a.093.093,0,0,0,.038.005,10.163,10.163,0,0,0,1.716.139,10.781,10.781,0,0,0,10.78-10.783Z" transform="translate(23.866 0)" fill="none" stroke="#052a3a" stroke-width="1"/>
        <g id="Group_4849" data-name="Group 4849" transform="translate(0 8.836)">
          <path id="Path_7214" data-name="Path 7214" d="M36.41,34.52v-12.3a1.909,1.909,0,0,0-1.9-1.9H16.1V1.9A1.9,1.9,0,0,0,14.2,0H1.9A1.9,1.9,0,0,0,0,1.9v26.47a8.011,8.011,0,0,0,2.356,5.69h0a8.023,8.023,0,0,0,5.69,2.36H34.507a1.909,1.909,0,0,0,1.9-1.9Z" transform="translate(0 0)" fill="none" stroke="#052a3a" stroke-width="1"/>
        </g>
      </g>
      <g id="Group_4852" data-name="Group 4852" transform="translate(0 347.086)" opacity="0.1">
        <path id="Path_7215" data-name="Path 7215" d="M21.561,10.779a10.636,10.636,0,0,0-.406-2.922A10.508,10.508,0,0,0,19.468,4.4a10.163,10.163,0,0,0-1.285-1.452A10.774,10.774,0,0,0,.406,7.857,8.222,8.222,0,0,0,.174,8.87,10.46,10.46,0,0,0,0,10.779,10.763,10.763,0,0,0,9.026,21.417a.093.093,0,0,0,.038.005,10.163,10.163,0,0,0,1.716.139,10.781,10.781,0,0,0,10.78-10.783Z" transform="translate(23.866 0)" fill="none" stroke="#052a3a" stroke-width="1"/>
        <g id="Group_4851" data-name="Group 4851" transform="translate(0 8.836)">
          <path id="Path_7216" data-name="Path 7216" d="M36.41,34.52v-12.3a1.909,1.909,0,0,0-1.9-1.9H16.1V1.9A1.9,1.9,0,0,0,14.2,0H1.9A1.9,1.9,0,0,0,0,1.9v26.47a8.011,8.011,0,0,0,2.356,5.69h0a8.023,8.023,0,0,0,5.69,2.36H34.507a1.909,1.909,0,0,0,1.9-1.9Z" transform="translate(0 0)" fill="none" stroke="#052a3a" stroke-width="1"/>
        </g>
      </g>
      <g id="Group_4854" data-name="Group 4854" transform="translate(0 669.48)" opacity="0.1">
        <path id="Path_7217" data-name="Path 7217" d="M21.561,10.779a10.636,10.636,0,0,0-.406-2.922A10.508,10.508,0,0,0,19.468,4.4a10.163,10.163,0,0,0-1.285-1.452A10.774,10.774,0,0,0,.406,7.857,8.222,8.222,0,0,0,.174,8.87,10.46,10.46,0,0,0,0,10.779,10.763,10.763,0,0,0,9.026,21.417a.093.093,0,0,0,.038.005,10.163,10.163,0,0,0,1.716.139,10.781,10.781,0,0,0,10.78-10.783Z" transform="translate(23.866 0)" fill="none" stroke="#052a3a" stroke-width="1"/>
        <g id="Group_4853" data-name="Group 4853" transform="translate(0 8.836)">
          <path id="Path_7218" data-name="Path 7218" d="M36.41,34.52v-12.3a1.909,1.909,0,0,0-1.9-1.9H16.1V1.9A1.9,1.9,0,0,0,14.2,0H1.9A1.9,1.9,0,0,0,0,1.9v26.47a8.011,8.011,0,0,0,2.356,5.69h0a8.023,8.023,0,0,0,5.69,2.36H34.507a1.909,1.909,0,0,0,1.9-1.9Z" transform="translate(0 0)" fill="none" stroke="#052a3a" stroke-width="1"/>
        </g>
      </g>
      <g id="Group_4856" data-name="Group 4856" transform="translate(0 750.078)" opacity="0.1">
        <path id="Path_7219" data-name="Path 7219" d="M21.561,10.779a10.636,10.636,0,0,0-.406-2.922A10.508,10.508,0,0,0,19.468,4.4a10.163,10.163,0,0,0-1.285-1.452A10.774,10.774,0,0,0,.406,7.857,8.222,8.222,0,0,0,.174,8.87,10.46,10.46,0,0,0,0,10.779,10.763,10.763,0,0,0,9.026,21.417a.093.093,0,0,0,.038.005,10.163,10.163,0,0,0,1.716.139,10.781,10.781,0,0,0,10.78-10.783Z" transform="translate(23.866 0)" fill="none" stroke="#052a3a" stroke-width="1"/>
        <g id="Group_4855" data-name="Group 4855" transform="translate(0 8.836)">
          <path id="Path_7220" data-name="Path 7220" d="M36.41,34.52v-12.3a1.909,1.909,0,0,0-1.9-1.9H16.1V1.9A1.9,1.9,0,0,0,14.2,0H1.9A1.9,1.9,0,0,0,0,1.9v26.47a8.011,8.011,0,0,0,2.356,5.69h0a8.023,8.023,0,0,0,5.69,2.36H34.507a1.909,1.909,0,0,0,1.9-1.9Z" transform="translate(0 0)" fill="none" stroke="#052a3a" stroke-width="1"/>
        </g>
      </g>
      <g id="Group_4858" data-name="Group 4858" transform="translate(231.018 185.889)" opacity="0.5">
        <path id="Path_7221" data-name="Path 7221" d="M21.561,10.779a10.636,10.636,0,0,0-.406-2.922A10.508,10.508,0,0,0,19.468,4.4a10.163,10.163,0,0,0-1.285-1.452A10.774,10.774,0,0,0,.406,7.857,8.222,8.222,0,0,0,.174,8.87,10.46,10.46,0,0,0,0,10.779,10.763,10.763,0,0,0,9.026,21.417a.093.093,0,0,0,.038.005,10.163,10.163,0,0,0,1.716.139,10.781,10.781,0,0,0,10.78-10.783Z" transform="translate(23.866 0)" fill="none" stroke="#052a3a" stroke-width="1"/>
        <g id="Group_4857" data-name="Group 4857" transform="translate(0 8.836)">
          <path id="Path_7222" data-name="Path 7222" d="M36.41,34.52v-12.3a1.909,1.909,0,0,0-1.9-1.9H16.1V1.9A1.9,1.9,0,0,0,14.2,0H1.9A1.9,1.9,0,0,0,0,1.9v26.47a8.011,8.011,0,0,0,2.356,5.69h0a8.023,8.023,0,0,0,5.69,2.36H34.507a1.909,1.909,0,0,0,1.9-1.9Z" transform="translate(0 0)" fill="none" stroke="#052a3a" stroke-width="1"/>
        </g>
      </g>
      <g id="Group_4860" data-name="Group 4860" transform="translate(231.018 508.283)" opacity="0.5">
        <path id="Path_7223" data-name="Path 7223" d="M21.561,10.779a10.636,10.636,0,0,0-.406-2.922A10.508,10.508,0,0,0,19.468,4.4a10.163,10.163,0,0,0-1.285-1.452A10.774,10.774,0,0,0,.406,7.857,8.222,8.222,0,0,0,.174,8.87,10.46,10.46,0,0,0,0,10.779,10.763,10.763,0,0,0,9.026,21.417a.093.093,0,0,0,.038.005,10.163,10.163,0,0,0,1.716.139,10.781,10.781,0,0,0,10.78-10.783Z" transform="translate(23.866 0)" fill="none" stroke="#052a3a" stroke-width="1"/>
        <g id="Group_4859" data-name="Group 4859" transform="translate(0 8.836)">
          <path id="Path_7224" data-name="Path 7224" d="M36.41,34.52v-12.3a1.909,1.909,0,0,0-1.9-1.9H16.1V1.9A1.9,1.9,0,0,0,14.2,0H1.9A1.9,1.9,0,0,0,0,1.9v26.47a8.011,8.011,0,0,0,2.356,5.69h0a8.023,8.023,0,0,0,5.69,2.36H34.507a1.909,1.909,0,0,0,1.9-1.9Z" transform="translate(0 0)" fill="none" stroke="#052a3a" stroke-width="1"/>
        </g>
      </g>
      <g id="Group_4862" data-name="Group 4862" transform="translate(115.509 185.889)" opacity="0.3">
        <path id="Path_7225" data-name="Path 7225" d="M21.561,10.779a10.636,10.636,0,0,0-.406-2.922A10.508,10.508,0,0,0,19.468,4.4a10.163,10.163,0,0,0-1.285-1.452A10.774,10.774,0,0,0,.406,7.857,8.222,8.222,0,0,0,.174,8.87,10.46,10.46,0,0,0,0,10.779,10.763,10.763,0,0,0,9.026,21.417a.093.093,0,0,0,.038.005,10.163,10.163,0,0,0,1.716.139,10.781,10.781,0,0,0,10.78-10.783Z" transform="translate(23.866 0)" fill="none" stroke="#052a3a" stroke-width="1"/>
        <g id="Group_4861" data-name="Group 4861" transform="translate(0 8.836)">
          <path id="Path_7226" data-name="Path 7226" d="M36.41,34.52v-12.3a1.909,1.909,0,0,0-1.9-1.9H16.1V1.9A1.9,1.9,0,0,0,14.2,0H1.9A1.9,1.9,0,0,0,0,1.9v26.47a8.011,8.011,0,0,0,2.356,5.69h0a8.023,8.023,0,0,0,5.69,2.36H34.507a1.909,1.909,0,0,0,1.9-1.9Z" transform="translate(0 0)" fill="none" stroke="#052a3a" stroke-width="1"/>
        </g>
      </g>
      <g id="Group_4864" data-name="Group 4864" transform="translate(115.509 508.283)" opacity="0.3">
        <path id="Path_7227" data-name="Path 7227" d="M21.561,10.779a10.636,10.636,0,0,0-.406-2.922A10.508,10.508,0,0,0,19.468,4.4a10.163,10.163,0,0,0-1.285-1.452A10.774,10.774,0,0,0,.406,7.857,8.222,8.222,0,0,0,.174,8.87,10.46,10.46,0,0,0,0,10.779,10.763,10.763,0,0,0,9.026,21.417a.093.093,0,0,0,.038.005,10.163,10.163,0,0,0,1.716.139,10.781,10.781,0,0,0,10.78-10.783Z" transform="translate(23.866 0)" fill="none" stroke="#052a3a" stroke-width="1"/>
        <g id="Group_4863" data-name="Group 4863" transform="translate(0 8.836)">
          <path id="Path_7228" data-name="Path 7228" d="M36.41,34.52v-12.3a1.909,1.909,0,0,0-1.9-1.9H16.1V1.9A1.9,1.9,0,0,0,14.2,0H1.9A1.9,1.9,0,0,0,0,1.9v26.47a8.011,8.011,0,0,0,2.356,5.69h0a8.023,8.023,0,0,0,5.69,2.36H34.507a1.909,1.909,0,0,0,1.9-1.9Z" transform="translate(0 0)" fill="none" stroke="#052a3a" stroke-width="1"/>
        </g>
      </g>
      <g id="Group_4866" data-name="Group 4866" transform="translate(0 185.889)" opacity="0.1">
        <path id="Path_7229" data-name="Path 7229" d="M21.561,10.779a10.636,10.636,0,0,0-.406-2.922A10.508,10.508,0,0,0,19.468,4.4a10.163,10.163,0,0,0-1.285-1.452A10.774,10.774,0,0,0,.406,7.857,8.222,8.222,0,0,0,.174,8.87,10.46,10.46,0,0,0,0,10.779,10.763,10.763,0,0,0,9.026,21.417a.093.093,0,0,0,.038.005,10.163,10.163,0,0,0,1.716.139,10.781,10.781,0,0,0,10.78-10.783Z" transform="translate(23.866 0)" fill="none" stroke="#052a3a" stroke-width="1"/>
        <g id="Group_4865" data-name="Group 4865" transform="translate(0 8.836)">
          <path id="Path_7230" data-name="Path 7230" d="M36.41,34.52v-12.3a1.909,1.909,0,0,0-1.9-1.9H16.1V1.9A1.9,1.9,0,0,0,14.2,0H1.9A1.9,1.9,0,0,0,0,1.9v26.47a8.011,8.011,0,0,0,2.356,5.69h0a8.023,8.023,0,0,0,5.69,2.36H34.507a1.909,1.909,0,0,0,1.9-1.9Z" transform="translate(0 0)" fill="none" stroke="#052a3a" stroke-width="1"/>
        </g>
      </g>
      <g id="Group_4868" data-name="Group 4868" transform="translate(0 508.283)" opacity="0.1">
        <path id="Path_7231" data-name="Path 7231" d="M21.561,10.779a10.636,10.636,0,0,0-.406-2.922A10.508,10.508,0,0,0,19.468,4.4a10.163,10.163,0,0,0-1.285-1.452A10.774,10.774,0,0,0,.406,7.857,8.222,8.222,0,0,0,.174,8.87,10.46,10.46,0,0,0,0,10.779,10.763,10.763,0,0,0,9.026,21.417a.093.093,0,0,0,.038.005,10.163,10.163,0,0,0,1.716.139,10.781,10.781,0,0,0,10.78-10.783Z" transform="translate(23.866 0)" fill="none" stroke="#052a3a" stroke-width="1"/>
        <g id="Group_4867" data-name="Group 4867" transform="translate(0 8.836)">
          <path id="Path_7232" data-name="Path 7232" d="M36.41,34.52v-12.3a1.909,1.909,0,0,0-1.9-1.9H16.1V1.9A1.9,1.9,0,0,0,14.2,0H1.9A1.9,1.9,0,0,0,0,1.9v26.47a8.011,8.011,0,0,0,2.356,5.69h0a8.023,8.023,0,0,0,5.69,2.36H34.507a1.909,1.909,0,0,0,1.9-1.9Z" transform="translate(0 0)" fill="none" stroke="#052a3a" stroke-width="1"/>
        </g>
      </g>
      <g id="Group_4870" data-name="Group 4870" transform="translate(231.021 266.487)" opacity="0.5">
        <path id="Path_7233" data-name="Path 7233" d="M21.561,10.779a10.636,10.636,0,0,0-.406-2.922A10.508,10.508,0,0,0,19.468,4.4a10.163,10.163,0,0,0-1.285-1.452A10.774,10.774,0,0,0,.406,7.857,8.222,8.222,0,0,0,.174,8.87,10.46,10.46,0,0,0,0,10.779,10.763,10.763,0,0,0,9.026,21.417a.093.093,0,0,0,.038.005,10.163,10.163,0,0,0,1.716.139,10.781,10.781,0,0,0,10.78-10.783Z" transform="translate(23.866 0)" fill="none" stroke="#052a3a" stroke-width="1"/>
        <g id="Group_4869" data-name="Group 4869" transform="translate(0 8.836)">
          <path id="Path_7234" data-name="Path 7234" d="M36.41,34.52v-12.3a1.909,1.909,0,0,0-1.9-1.9H16.1V1.9A1.9,1.9,0,0,0,14.2,0H1.9A1.9,1.9,0,0,0,0,1.9v26.47a8.011,8.011,0,0,0,2.356,5.69h0a8.023,8.023,0,0,0,5.69,2.36H34.507a1.909,1.909,0,0,0,1.9-1.9Z" transform="translate(0 0)" fill="none" stroke="#052a3a" stroke-width="1"/>
        </g>
      </g>
      <g id="Group_4872" data-name="Group 4872" transform="translate(231.021 588.881)" opacity="0.5">
        <path id="Path_7235" data-name="Path 7235" d="M21.561,10.779a10.636,10.636,0,0,0-.406-2.922A10.508,10.508,0,0,0,19.468,4.4a10.163,10.163,0,0,0-1.285-1.452A10.774,10.774,0,0,0,.406,7.857,8.222,8.222,0,0,0,.174,8.87,10.46,10.46,0,0,0,0,10.779,10.763,10.763,0,0,0,9.026,21.417a.093.093,0,0,0,.038.005,10.163,10.163,0,0,0,1.716.139,10.781,10.781,0,0,0,10.78-10.783Z" transform="translate(23.866 0)" fill="none" stroke="#052a3a" stroke-width="1"/>
        <g id="Group_4871" data-name="Group 4871" transform="translate(0 8.836)">
          <path id="Path_7236" data-name="Path 7236" d="M36.41,34.52v-12.3a1.909,1.909,0,0,0-1.9-1.9H16.1V1.9A1.9,1.9,0,0,0,14.2,0H1.9A1.9,1.9,0,0,0,0,1.9v26.47a8.011,8.011,0,0,0,2.356,5.69h0a8.023,8.023,0,0,0,5.69,2.36H34.507a1.909,1.909,0,0,0,1.9-1.9Z" transform="translate(0 0)" fill="none" stroke="#052a3a" stroke-width="1"/>
        </g>
      </g>
      <g id="Group_4874" data-name="Group 4874" transform="translate(115.512 266.487)" opacity="0.3">
        <path id="Path_7237" data-name="Path 7237" d="M21.561,10.779a10.636,10.636,0,0,0-.406-2.922A10.508,10.508,0,0,0,19.468,4.4a10.163,10.163,0,0,0-1.285-1.452A10.774,10.774,0,0,0,.406,7.857,8.222,8.222,0,0,0,.174,8.87,10.46,10.46,0,0,0,0,10.779,10.763,10.763,0,0,0,9.026,21.417a.093.093,0,0,0,.038.005,10.163,10.163,0,0,0,1.716.139,10.781,10.781,0,0,0,10.78-10.783Z" transform="translate(23.866 0)" fill="none" stroke="#052a3a" stroke-width="1"/>
        <g id="Group_4873" data-name="Group 4873" transform="translate(0 8.836)">
          <path id="Path_7238" data-name="Path 7238" d="M36.41,34.52v-12.3a1.909,1.909,0,0,0-1.9-1.9H16.1V1.9A1.9,1.9,0,0,0,14.2,0H1.9A1.9,1.9,0,0,0,0,1.9v26.47a8.011,8.011,0,0,0,2.356,5.69h0a8.023,8.023,0,0,0,5.69,2.36H34.507a1.909,1.909,0,0,0,1.9-1.9Z" transform="translate(0 0)" fill="none" stroke="#052a3a" stroke-width="1"/>
        </g>
      </g>
      <g id="Group_4876" data-name="Group 4876" transform="translate(115.512 588.881)" opacity="0.3">
        <path id="Path_7239" data-name="Path 7239" d="M21.561,10.779a10.636,10.636,0,0,0-.406-2.922A10.508,10.508,0,0,0,19.468,4.4a10.163,10.163,0,0,0-1.285-1.452A10.774,10.774,0,0,0,.406,7.857,8.222,8.222,0,0,0,.174,8.87,10.46,10.46,0,0,0,0,10.779,10.763,10.763,0,0,0,9.026,21.417a.093.093,0,0,0,.038.005,10.163,10.163,0,0,0,1.716.139,10.781,10.781,0,0,0,10.78-10.783Z" transform="translate(23.866 0)" fill="none" stroke="#052a3a" stroke-width="1"/>
        <g id="Group_4875" data-name="Group 4875" transform="translate(0 8.836)">
          <path id="Path_7240" data-name="Path 7240" d="M36.41,34.52v-12.3a1.909,1.909,0,0,0-1.9-1.9H16.1V1.9A1.9,1.9,0,0,0,14.2,0H1.9A1.9,1.9,0,0,0,0,1.9v26.47a8.011,8.011,0,0,0,2.356,5.69h0a8.023,8.023,0,0,0,5.69,2.36H34.507a1.909,1.909,0,0,0,1.9-1.9Z" transform="translate(0 0)" fill="none" stroke="#052a3a" stroke-width="1"/>
        </g>
      </g>
      <g id="Group_4878" data-name="Group 4878" transform="translate(0.003 266.487)" opacity="0.1">
        <path id="Path_7241" data-name="Path 7241" d="M21.561,10.779a10.636,10.636,0,0,0-.406-2.922A10.508,10.508,0,0,0,19.468,4.4a10.163,10.163,0,0,0-1.285-1.452A10.774,10.774,0,0,0,.406,7.857,8.222,8.222,0,0,0,.174,8.87,10.46,10.46,0,0,0,0,10.779,10.763,10.763,0,0,0,9.026,21.417a.093.093,0,0,0,.038.005,10.163,10.163,0,0,0,1.716.139,10.781,10.781,0,0,0,10.78-10.783Z" transform="translate(23.866 0)" fill="none" stroke="#052a3a" stroke-width="1"/>
        <g id="Group_4877" data-name="Group 4877" transform="translate(0 8.836)">
          <path id="Path_7242" data-name="Path 7242" d="M36.41,34.52v-12.3a1.909,1.909,0,0,0-1.9-1.9H16.1V1.9A1.9,1.9,0,0,0,14.2,0H1.9A1.9,1.9,0,0,0,0,1.9v26.47a8.011,8.011,0,0,0,2.356,5.69h0a8.023,8.023,0,0,0,5.69,2.36H34.507a1.909,1.909,0,0,0,1.9-1.9Z" transform="translate(0 0)" fill="none" stroke="#052a3a" stroke-width="1"/>
        </g>
      </g>
      <g id="Group_4880" data-name="Group 4880" transform="translate(0.003 588.881)" opacity="0.1">
        <path id="Path_7243" data-name="Path 7243" d="M21.561,10.779a10.636,10.636,0,0,0-.406-2.922A10.508,10.508,0,0,0,19.468,4.4a10.163,10.163,0,0,0-1.285-1.452A10.774,10.774,0,0,0,.406,7.857,8.222,8.222,0,0,0,.174,8.87,10.46,10.46,0,0,0,0,10.779,10.763,10.763,0,0,0,9.026,21.417a.093.093,0,0,0,.038.005,10.163,10.163,0,0,0,1.716.139,10.781,10.781,0,0,0,10.78-10.783Z" transform="translate(23.866 0)" fill="none" stroke="#052a3a" stroke-width="1"/>
        <g id="Group_4879" data-name="Group 4879" transform="translate(0 8.836)">
          <path id="Path_7244" data-name="Path 7244" d="M36.41,34.52v-12.3a1.909,1.909,0,0,0-1.9-1.9H16.1V1.9A1.9,1.9,0,0,0,14.2,0H1.9A1.9,1.9,0,0,0,0,1.9v26.47a8.011,8.011,0,0,0,2.356,5.69h0a8.023,8.023,0,0,0,5.69,2.36H34.507a1.909,1.909,0,0,0,1.9-1.9Z" transform="translate(0 0)" fill="none" stroke="#052a3a" stroke-width="1"/>
        </g>
      </g>
      <g id="Group_4882" data-name="Group 4882" transform="translate(231.021 105.29)" opacity="0.5">
        <path id="Path_7245" data-name="Path 7245" d="M21.561,10.779a10.636,10.636,0,0,0-.406-2.922A10.508,10.508,0,0,0,19.468,4.4a10.163,10.163,0,0,0-1.285-1.452A10.774,10.774,0,0,0,.406,7.857,8.222,8.222,0,0,0,.174,8.87,10.46,10.46,0,0,0,0,10.779,10.763,10.763,0,0,0,9.026,21.417a.093.093,0,0,0,.038.005,10.163,10.163,0,0,0,1.716.139,10.781,10.781,0,0,0,10.78-10.783Z" transform="translate(23.866 0)" fill="none" stroke="#052a3a" stroke-width="1"/>
        <g id="Group_4881" data-name="Group 4881" transform="translate(0 8.836)">
          <path id="Path_7246" data-name="Path 7246" d="M36.41,34.52v-12.3a1.909,1.909,0,0,0-1.9-1.9H16.1V1.9A1.9,1.9,0,0,0,14.2,0H1.9A1.9,1.9,0,0,0,0,1.9v26.47a8.011,8.011,0,0,0,2.356,5.69h0a8.023,8.023,0,0,0,5.69,2.36H34.507a1.909,1.909,0,0,0,1.9-1.9Z" transform="translate(0 0)" fill="none" stroke="#052a3a" stroke-width="1"/>
        </g>
      </g>
      <g id="Group_4884" data-name="Group 4884" transform="translate(231.021 9.802)" opacity="0.5">
        <path id="Path_7247" data-name="Path 7247" d="M21.561,10.779a10.636,10.636,0,0,0-.406-2.922A10.508,10.508,0,0,0,19.468,4.4a10.163,10.163,0,0,0-1.285-1.452A10.774,10.774,0,0,0,.406,7.857,8.222,8.222,0,0,0,.174,8.87,10.46,10.46,0,0,0,0,10.779,10.763,10.763,0,0,0,9.026,21.417a.093.093,0,0,0,.038.005,10.163,10.163,0,0,0,1.716.139,10.781,10.781,0,0,0,10.78-10.783Z" transform="translate(23.866 0)" fill="none" stroke="#052a3a" stroke-width="1"/>
        <g id="Group_4883" data-name="Group 4883" transform="translate(0 8.836)">
          <path id="Path_7248" data-name="Path 7248" d="M36.41,34.52v-12.3a1.909,1.909,0,0,0-1.9-1.9H16.1V1.9A1.9,1.9,0,0,0,14.2,0H1.9A1.9,1.9,0,0,0,0,1.9v26.47a8.011,8.011,0,0,0,2.356,5.69h0a8.023,8.023,0,0,0,5.69,2.36H34.507a1.909,1.909,0,0,0,1.9-1.9Z" transform="translate(0 0)" fill="none" stroke="#052a3a" stroke-width="1"/>
        </g>
      </g>
      <g id="Group_4886" data-name="Group 4886" transform="translate(231.021 427.684)" opacity="0.5">
        <path id="Path_7249" data-name="Path 7249" d="M21.561,10.779a10.636,10.636,0,0,0-.406-2.922A10.508,10.508,0,0,0,19.468,4.4a10.163,10.163,0,0,0-1.285-1.452A10.774,10.774,0,0,0,.406,7.857,8.222,8.222,0,0,0,.174,8.87,10.46,10.46,0,0,0,0,10.779,10.763,10.763,0,0,0,9.026,21.417a.093.093,0,0,0,.038.005,10.163,10.163,0,0,0,1.716.139,10.781,10.781,0,0,0,10.78-10.783Z" transform="translate(23.866 0)" fill="none" stroke="#052a3a" stroke-width="1"/>
        <g id="Group_4885" data-name="Group 4885" transform="translate(0 8.836)">
          <path id="Path_7250" data-name="Path 7250" d="M36.41,34.52v-12.3a1.909,1.909,0,0,0-1.9-1.9H16.1V1.9A1.9,1.9,0,0,0,14.2,0H1.9A1.9,1.9,0,0,0,0,1.9v26.47a8.011,8.011,0,0,0,2.356,5.69h0a8.023,8.023,0,0,0,5.69,2.36H34.507a1.909,1.909,0,0,0,1.9-1.9Z" transform="translate(0 0)" fill="none" stroke="#052a3a" stroke-width="1"/>
        </g>
      </g>
      <g id="Group_4888" data-name="Group 4888" transform="translate(115.512 105.29)" opacity="0.3">
        <path id="Path_7251" data-name="Path 7251" d="M21.561,10.779a10.636,10.636,0,0,0-.406-2.922A10.508,10.508,0,0,0,19.468,4.4a10.163,10.163,0,0,0-1.285-1.452A10.774,10.774,0,0,0,.406,7.857,8.222,8.222,0,0,0,.174,8.87,10.46,10.46,0,0,0,0,10.779,10.763,10.763,0,0,0,9.026,21.417a.093.093,0,0,0,.038.005,10.163,10.163,0,0,0,1.716.139,10.781,10.781,0,0,0,10.78-10.783Z" transform="translate(23.866 0)" fill="none" stroke="#052a3a" stroke-width="1"/>
        <g id="Group_4887" data-name="Group 4887" transform="translate(0 8.836)">
          <path id="Path_7252" data-name="Path 7252" d="M36.41,34.52v-12.3a1.909,1.909,0,0,0-1.9-1.9H16.1V1.9A1.9,1.9,0,0,0,14.2,0H1.9A1.9,1.9,0,0,0,0,1.9v26.47a8.011,8.011,0,0,0,2.356,5.69h0a8.023,8.023,0,0,0,5.69,2.36H34.507a1.909,1.909,0,0,0,1.9-1.9Z" transform="translate(0 0)" fill="none" stroke="#052a3a" stroke-width="1"/>
        </g>
      </g>
      <g id="Group_4890" data-name="Group 4890" transform="translate(115.512 9.802)" opacity="0.3">
        <path id="Path_7253" data-name="Path 7253" d="M21.561,10.779a10.636,10.636,0,0,0-.406-2.922A10.508,10.508,0,0,0,19.468,4.4a10.163,10.163,0,0,0-1.285-1.452A10.774,10.774,0,0,0,.406,7.857,8.222,8.222,0,0,0,.174,8.87,10.46,10.46,0,0,0,0,10.779,10.763,10.763,0,0,0,9.026,21.417a.093.093,0,0,0,.038.005,10.163,10.163,0,0,0,1.716.139,10.781,10.781,0,0,0,10.78-10.783Z" transform="translate(23.866 0)" fill="none" stroke="#052a3a" stroke-width="1"/>
        <g id="Group_4889" data-name="Group 4889" transform="translate(0 8.836)">
          <path id="Path_7254" data-name="Path 7254" d="M36.41,34.52v-12.3a1.909,1.909,0,0,0-1.9-1.9H16.1V1.9A1.9,1.9,0,0,0,14.2,0H1.9A1.9,1.9,0,0,0,0,1.9v26.47a8.011,8.011,0,0,0,2.356,5.69h0a8.023,8.023,0,0,0,5.69,2.36H34.507a1.909,1.909,0,0,0,1.9-1.9Z" transform="translate(0 0)" fill="none" stroke="#052a3a" stroke-width="1"/>
        </g>
      </g>
      <g id="Group_4892" data-name="Group 4892" transform="translate(115.512 427.684)" opacity="0.3">
        <path id="Path_7255" data-name="Path 7255" d="M21.561,10.779a10.636,10.636,0,0,0-.406-2.922A10.508,10.508,0,0,0,19.468,4.4a10.163,10.163,0,0,0-1.285-1.452A10.774,10.774,0,0,0,.406,7.857,8.222,8.222,0,0,0,.174,8.87,10.46,10.46,0,0,0,0,10.779,10.763,10.763,0,0,0,9.026,21.417a.093.093,0,0,0,.038.005,10.163,10.163,0,0,0,1.716.139,10.781,10.781,0,0,0,10.78-10.783Z" transform="translate(23.866 0)" fill="none" stroke="#052a3a" stroke-width="1"/>
        <g id="Group_4891" data-name="Group 4891" transform="translate(0 8.836)">
          <path id="Path_7256" data-name="Path 7256" d="M36.41,34.52v-12.3a1.909,1.909,0,0,0-1.9-1.9H16.1V1.9A1.9,1.9,0,0,0,14.2,0H1.9A1.9,1.9,0,0,0,0,1.9v26.47a8.011,8.011,0,0,0,2.356,5.69h0a8.023,8.023,0,0,0,5.69,2.36H34.507a1.909,1.909,0,0,0,1.9-1.9Z" transform="translate(0 0)" fill="none" stroke="#052a3a" stroke-width="1"/>
        </g>
      </g>
      <g id="Group_4894" data-name="Group 4894" transform="translate(0.003 105.29)" opacity="0.1">
        <path id="Path_7257" data-name="Path 7257" d="M21.561,10.779a10.636,10.636,0,0,0-.406-2.922A10.508,10.508,0,0,0,19.468,4.4a10.163,10.163,0,0,0-1.285-1.452A10.774,10.774,0,0,0,.406,7.857,8.222,8.222,0,0,0,.174,8.87,10.46,10.46,0,0,0,0,10.779,10.763,10.763,0,0,0,9.026,21.417a.093.093,0,0,0,.038.005,10.163,10.163,0,0,0,1.716.139,10.781,10.781,0,0,0,10.78-10.783Z" transform="translate(23.866 0)" fill="none" stroke="#052a3a" stroke-width="1"/>
        <g id="Group_4893" data-name="Group 4893" transform="translate(0 8.836)">
          <path id="Path_7258" data-name="Path 7258" d="M36.41,34.52v-12.3a1.909,1.909,0,0,0-1.9-1.9H16.1V1.9A1.9,1.9,0,0,0,14.2,0H1.9A1.9,1.9,0,0,0,0,1.9v26.47a8.011,8.011,0,0,0,2.356,5.69h0a8.023,8.023,0,0,0,5.69,2.36H34.507a1.909,1.909,0,0,0,1.9-1.9Z" transform="translate(0 0)" fill="none" stroke="#052a3a" stroke-width="1"/>
        </g>
      </g>
      <g id="Group_4896" data-name="Group 4896" transform="translate(0.003 9.802)" opacity="0.1">
        <path id="Path_7259" data-name="Path 7259" d="M21.561,10.779a10.636,10.636,0,0,0-.406-2.922A10.508,10.508,0,0,0,19.468,4.4a10.163,10.163,0,0,0-1.285-1.452A10.774,10.774,0,0,0,.406,7.857,8.222,8.222,0,0,0,.174,8.87,10.46,10.46,0,0,0,0,10.779,10.763,10.763,0,0,0,9.026,21.417a.093.093,0,0,0,.038.005,10.163,10.163,0,0,0,1.716.139,10.781,10.781,0,0,0,10.78-10.783Z" transform="translate(23.866 0)" fill="none" stroke="#052a3a" stroke-width="1"/>
        <g id="Group_4895" data-name="Group 4895" transform="translate(0 8.836)">
          <path id="Path_7260" data-name="Path 7260" d="M36.41,34.52v-12.3a1.909,1.909,0,0,0-1.9-1.9H16.1V1.9A1.9,1.9,0,0,0,14.2,0H1.9A1.9,1.9,0,0,0,0,1.9v26.47a8.011,8.011,0,0,0,2.356,5.69h0a8.023,8.023,0,0,0,5.69,2.36H34.507a1.909,1.909,0,0,0,1.9-1.9Z" transform="translate(0 0)" fill="none" stroke="#052a3a" stroke-width="1"/>
        </g>
      </g>
      <g id="Group_4898" data-name="Group 4898" transform="translate(0.003 427.684)" opacity="0.1">
        <path id="Path_7261" data-name="Path 7261" d="M21.561,10.779a10.636,10.636,0,0,0-.406-2.922A10.508,10.508,0,0,0,19.468,4.4a10.163,10.163,0,0,0-1.285-1.452A10.774,10.774,0,0,0,.406,7.857,8.222,8.222,0,0,0,.174,8.87,10.46,10.46,0,0,0,0,10.779,10.763,10.763,0,0,0,9.026,21.417a.093.093,0,0,0,.038.005,10.163,10.163,0,0,0,1.716.139,10.781,10.781,0,0,0,10.78-10.783Z" transform="translate(23.866 0)" fill="none" stroke="#052a3a" stroke-width="1"/>
        <g id="Group_4897" data-name="Group 4897" transform="translate(0 8.836)">
          <path id="Path_7262" data-name="Path 7262" d="M36.41,34.52v-12.3a1.909,1.909,0,0,0-1.9-1.9H16.1V1.9A1.9,1.9,0,0,0,14.2,0H1.9A1.9,1.9,0,0,0,0,1.9v26.47a8.011,8.011,0,0,0,2.356,5.69h0a8.023,8.023,0,0,0,5.69,2.36H34.507a1.909,1.909,0,0,0,1.9-1.9Z" transform="translate(0 0)" fill="none" stroke="#052a3a" stroke-width="1"/>
        </g>
      </g>
      <g id="Group_4900" data-name="Group 4900" transform="translate(288.773 303.519)" opacity="0.6">
        <path id="Path_7263" data-name="Path 7263" d="M21.561,10.779a10.636,10.636,0,0,0-.406-2.922A10.508,10.508,0,0,0,19.468,4.4a10.163,10.163,0,0,0-1.285-1.452A10.774,10.774,0,0,0,.406,7.857,8.222,8.222,0,0,0,.174,8.87,10.46,10.46,0,0,0,0,10.779,10.763,10.763,0,0,0,9.026,21.417a.093.093,0,0,0,.038.005,10.163,10.163,0,0,0,1.716.139,10.781,10.781,0,0,0,10.78-10.783Z" transform="translate(23.866 0)" fill="none" stroke="#052a3a" stroke-width="1"/>
        <g id="Group_4899" data-name="Group 4899" transform="translate(0 8.836)">
          <path id="Path_7264" data-name="Path 7264" d="M36.41,34.52v-12.3a1.909,1.909,0,0,0-1.9-1.9H16.1V1.9A1.9,1.9,0,0,0,14.2,0H1.9A1.9,1.9,0,0,0,0,1.9v26.47a8.011,8.011,0,0,0,2.356,5.69h0a8.023,8.023,0,0,0,5.69,2.36H34.507a1.909,1.909,0,0,0,1.9-1.9Z" transform="translate(0 0)" fill="none" stroke="#052a3a" stroke-width="1"/>
        </g>
      </g>
      <g id="Group_4902" data-name="Group 4902" transform="translate(288.773 631.359)" opacity="0.6">
        <path id="Path_7265" data-name="Path 7265" d="M21.561,10.779a10.636,10.636,0,0,0-.406-2.922A10.508,10.508,0,0,0,19.468,4.4a10.163,10.163,0,0,0-1.285-1.452A10.774,10.774,0,0,0,.406,7.857,8.222,8.222,0,0,0,.174,8.87,10.46,10.46,0,0,0,0,10.779,10.763,10.763,0,0,0,9.026,21.417a.093.093,0,0,0,.038.005,10.163,10.163,0,0,0,1.716.139,10.781,10.781,0,0,0,10.78-10.783Z" transform="translate(23.866 0)" fill="none" stroke="#052a3a" stroke-width="1"/>
        <g id="Group_4901" data-name="Group 4901" transform="translate(0 8.836)">
          <path id="Path_7266" data-name="Path 7266" d="M36.41,34.52v-12.3a1.909,1.909,0,0,0-1.9-1.9H16.1V1.9A1.9,1.9,0,0,0,14.2,0H1.9A1.9,1.9,0,0,0,0,1.9v26.47a8.011,8.011,0,0,0,2.356,5.69h0a8.023,8.023,0,0,0,5.69,2.36H34.507a1.909,1.909,0,0,0,1.9-1.9Z" transform="translate(0 0)" fill="none" stroke="#052a3a" stroke-width="1"/>
        </g>
      </g>
      <g id="Group_4904" data-name="Group 4904" transform="translate(288.773 714.136)" opacity="0.6">
        <path id="Path_7267" data-name="Path 7267" d="M21.561,10.779a10.636,10.636,0,0,0-.406-2.922A10.508,10.508,0,0,0,19.468,4.4a10.163,10.163,0,0,0-1.285-1.452A10.774,10.774,0,0,0,.406,7.857,8.222,8.222,0,0,0,.174,8.87,10.46,10.46,0,0,0,0,10.779,10.763,10.763,0,0,0,9.026,21.417a.093.093,0,0,0,.038.005,10.163,10.163,0,0,0,1.716.139,10.781,10.781,0,0,0,10.78-10.783Z" transform="translate(23.866 0)" fill="none" stroke="#052a3a" stroke-width="1"/>
        <g id="Group_4903" data-name="Group 4903" transform="translate(0 8.836)">
          <path id="Path_7268" data-name="Path 7268" d="M36.41,34.52v-12.3a1.909,1.909,0,0,0-1.9-1.9H16.1V1.9A1.9,1.9,0,0,0,14.2,0H1.9A1.9,1.9,0,0,0,0,1.9v26.47a8.011,8.011,0,0,0,2.356,5.69h0a8.023,8.023,0,0,0,5.69,2.36H34.507a1.909,1.909,0,0,0,1.9-1.9Z" transform="translate(0 0)" fill="none" stroke="#052a3a" stroke-width="1"/>
        </g>
      </g>
      <g id="Group_4906" data-name="Group 4906" transform="translate(173.264 303.519)" opacity="0.4">
        <path id="Path_7269" data-name="Path 7269" d="M21.561,10.779a10.636,10.636,0,0,0-.406-2.922A10.508,10.508,0,0,0,19.468,4.4a10.163,10.163,0,0,0-1.285-1.452A10.774,10.774,0,0,0,.406,7.857,8.222,8.222,0,0,0,.174,8.87,10.46,10.46,0,0,0,0,10.779,10.763,10.763,0,0,0,9.026,21.417a.093.093,0,0,0,.038.005,10.163,10.163,0,0,0,1.716.139,10.781,10.781,0,0,0,10.78-10.783Z" transform="translate(23.866 0)" fill="none" stroke="#052a3a" stroke-width="1"/>
        <g id="Group_4905" data-name="Group 4905" transform="translate(0 8.836)">
          <path id="Path_7270" data-name="Path 7270" d="M36.41,34.52v-12.3a1.909,1.909,0,0,0-1.9-1.9H16.1V1.9A1.9,1.9,0,0,0,14.2,0H1.9A1.9,1.9,0,0,0,0,1.9v26.47a8.011,8.011,0,0,0,2.356,5.69h0a8.023,8.023,0,0,0,5.69,2.36H34.507a1.909,1.909,0,0,0,1.9-1.9Z" transform="translate(0 0)" fill="none" stroke="#052a3a" stroke-width="1"/>
        </g>
      </g>
      <g id="Group_4908" data-name="Group 4908" transform="translate(173.264 632.448)" opacity="0.4">
        <path id="Path_7271" data-name="Path 7271" d="M21.561,10.779a10.636,10.636,0,0,0-.406-2.922A10.508,10.508,0,0,0,19.468,4.4a10.163,10.163,0,0,0-1.285-1.452A10.774,10.774,0,0,0,.406,7.857,8.222,8.222,0,0,0,.174,8.87,10.46,10.46,0,0,0,0,10.779,10.763,10.763,0,0,0,9.026,21.417a.093.093,0,0,0,.038.005,10.163,10.163,0,0,0,1.716.139,10.781,10.781,0,0,0,10.78-10.783Z" transform="translate(23.866 0)" fill="none" stroke="#052a3a" stroke-width="1"/>
        <g id="Group_4907" data-name="Group 4907" transform="translate(0 8.836)">
          <path id="Path_7272" data-name="Path 7272" d="M36.41,34.52v-12.3a1.909,1.909,0,0,0-1.9-1.9H16.1V1.9A1.9,1.9,0,0,0,14.2,0H1.9A1.9,1.9,0,0,0,0,1.9v26.47a8.011,8.011,0,0,0,2.356,5.69h0a8.023,8.023,0,0,0,5.69,2.36H34.507a1.909,1.909,0,0,0,1.9-1.9Z" transform="translate(0 0)" fill="none" stroke="#052a3a" stroke-width="1"/>
        </g>
      </g>
      <g id="Group_4910" data-name="Group 4910" transform="translate(173.264 714.136)" opacity="0.4">
        <path id="Path_7273" data-name="Path 7273" d="M21.561,10.779a10.636,10.636,0,0,0-.406-2.922A10.508,10.508,0,0,0,19.468,4.4a10.163,10.163,0,0,0-1.285-1.452A10.774,10.774,0,0,0,.406,7.857,8.222,8.222,0,0,0,.174,8.87,10.46,10.46,0,0,0,0,10.779,10.763,10.763,0,0,0,9.026,21.417a.093.093,0,0,0,.038.005,10.163,10.163,0,0,0,1.716.139,10.781,10.781,0,0,0,10.78-10.783Z" transform="translate(23.866 0)" fill="none" stroke="#052a3a" stroke-width="1"/>
        <g id="Group_4909" data-name="Group 4909" transform="translate(0 8.836)">
          <path id="Path_7274" data-name="Path 7274" d="M36.41,34.52v-12.3a1.909,1.909,0,0,0-1.9-1.9H16.1V1.9A1.9,1.9,0,0,0,14.2,0H1.9A1.9,1.9,0,0,0,0,1.9v26.47a8.011,8.011,0,0,0,2.356,5.69h0a8.023,8.023,0,0,0,5.69,2.36H34.507a1.909,1.909,0,0,0,1.9-1.9Z" transform="translate(0 0)" fill="none" stroke="#052a3a" stroke-width="1"/>
        </g>
      </g>
      <g id="Group_4912" data-name="Group 4912" transform="translate(57.754 303.519)" opacity="0.2">
        <path id="Path_7275" data-name="Path 7275" d="M21.561,10.779a10.636,10.636,0,0,0-.406-2.922A10.508,10.508,0,0,0,19.468,4.4a10.163,10.163,0,0,0-1.285-1.452A10.774,10.774,0,0,0,.406,7.857,8.222,8.222,0,0,0,.174,8.87,10.46,10.46,0,0,0,0,10.779,10.763,10.763,0,0,0,9.026,21.417a.093.093,0,0,0,.038.005,10.163,10.163,0,0,0,1.716.139,10.781,10.781,0,0,0,10.78-10.783Z" transform="translate(23.866 0)" fill="none" stroke="#052a3a" stroke-width="1"/>
        <g id="Group_4911" data-name="Group 4911" transform="translate(0 8.836)">
          <path id="Path_7276" data-name="Path 7276" d="M36.41,34.52v-12.3a1.909,1.909,0,0,0-1.9-1.9H16.1V1.9A1.9,1.9,0,0,0,14.2,0H1.9A1.9,1.9,0,0,0,0,1.9v26.47a8.011,8.011,0,0,0,2.356,5.69h0a8.023,8.023,0,0,0,5.69,2.36H34.507a1.909,1.909,0,0,0,1.9-1.9Z" transform="translate(0 0)" fill="none" stroke="#052a3a" stroke-width="1"/>
        </g>
      </g>
      <g id="Group_4914" data-name="Group 4914" transform="translate(57.754 632.448)" opacity="0.2">
        <path id="Path_7277" data-name="Path 7277" d="M21.561,10.779a10.636,10.636,0,0,0-.406-2.922A10.508,10.508,0,0,0,19.468,4.4a10.163,10.163,0,0,0-1.285-1.452A10.774,10.774,0,0,0,.406,7.857,8.222,8.222,0,0,0,.174,8.87,10.46,10.46,0,0,0,0,10.779,10.763,10.763,0,0,0,9.026,21.417a.093.093,0,0,0,.038.005,10.163,10.163,0,0,0,1.716.139,10.781,10.781,0,0,0,10.78-10.783Z" transform="translate(23.866 0)" fill="none" stroke="#052a3a" stroke-width="1"/>
        <g id="Group_4913" data-name="Group 4913" transform="translate(0 8.836)">
          <path id="Path_7278" data-name="Path 7278" d="M36.41,34.52v-12.3a1.909,1.909,0,0,0-1.9-1.9H16.1V1.9A1.9,1.9,0,0,0,14.2,0H1.9A1.9,1.9,0,0,0,0,1.9v26.47a8.011,8.011,0,0,0,2.356,5.69h0a8.023,8.023,0,0,0,5.69,2.36H34.507a1.909,1.909,0,0,0,1.9-1.9Z" transform="translate(0 0)" fill="none" stroke="#052a3a" stroke-width="1"/>
        </g>
      </g>
      <g id="Group_4916" data-name="Group 4916" transform="translate(57.754 714.136)" opacity="0.2">
        <path id="Path_7279" data-name="Path 7279" d="M21.561,10.779a10.636,10.636,0,0,0-.406-2.922A10.508,10.508,0,0,0,19.468,4.4a10.163,10.163,0,0,0-1.285-1.452A10.774,10.774,0,0,0,.406,7.857,8.222,8.222,0,0,0,.174,8.87,10.46,10.46,0,0,0,0,10.779,10.763,10.763,0,0,0,9.026,21.417a.093.093,0,0,0,.038.005,10.163,10.163,0,0,0,1.716.139,10.781,10.781,0,0,0,10.78-10.783Z" transform="translate(23.866 0)" fill="none" stroke="#052a3a" stroke-width="1"/>
        <g id="Group_4915" data-name="Group 4915" transform="translate(0 8.836)">
          <path id="Path_7280" data-name="Path 7280" d="M36.41,34.52v-12.3a1.909,1.909,0,0,0-1.9-1.9H16.1V1.9A1.9,1.9,0,0,0,14.2,0H1.9A1.9,1.9,0,0,0,0,1.9v26.47a8.011,8.011,0,0,0,2.356,5.69h0a8.023,8.023,0,0,0,5.69,2.36H34.507a1.909,1.909,0,0,0,1.9-1.9Z" transform="translate(0 0)" fill="none" stroke="#052a3a" stroke-width="1"/>
        </g>
      </g>
      <g id="Group_4918" data-name="Group 4918" transform="translate(288.773 139.054)" opacity="0.6">
        <path id="Path_7281" data-name="Path 7281" d="M21.561,10.779a10.636,10.636,0,0,0-.406-2.922A10.508,10.508,0,0,0,19.468,4.4a10.163,10.163,0,0,0-1.285-1.452A10.774,10.774,0,0,0,.406,7.857,8.222,8.222,0,0,0,.174,8.87,10.46,10.46,0,0,0,0,10.779,10.763,10.763,0,0,0,9.026,21.417a.093.093,0,0,0,.038.005,10.163,10.163,0,0,0,1.716.139,10.781,10.781,0,0,0,10.78-10.783Z" transform="translate(23.866 0)" fill="none" stroke="#052a3a" stroke-width="1"/>
        <g id="Group_4917" data-name="Group 4917" transform="translate(0 8.836)">
          <path id="Path_7282" data-name="Path 7282" d="M36.41,34.52v-12.3a1.909,1.909,0,0,0-1.9-1.9H16.1V1.9A1.9,1.9,0,0,0,14.2,0H1.9A1.9,1.9,0,0,0,0,1.9v26.47a8.011,8.011,0,0,0,2.356,5.69h0a8.023,8.023,0,0,0,5.69,2.36H34.507a1.909,1.909,0,0,0,1.9-1.9Z" transform="translate(0 0)" fill="none" stroke="#052a3a" stroke-width="1"/>
        </g>
      </g>
      <g id="Group_4920" data-name="Group 4920" transform="translate(288.773 467.983)" opacity="0.6">
        <path id="Path_7283" data-name="Path 7283" d="M21.561,10.779a10.636,10.636,0,0,0-.406-2.922A10.508,10.508,0,0,0,19.468,4.4a10.163,10.163,0,0,0-1.285-1.452A10.774,10.774,0,0,0,.406,7.857,8.222,8.222,0,0,0,.174,8.87,10.46,10.46,0,0,0,0,10.779,10.763,10.763,0,0,0,9.026,21.417a.093.093,0,0,0,.038.005,10.163,10.163,0,0,0,1.716.139,10.781,10.781,0,0,0,10.78-10.783Z" transform="translate(23.866 0)" fill="none" stroke="#052a3a" stroke-width="1"/>
        <g id="Group_4919" data-name="Group 4919" transform="translate(0 8.836)">
          <path id="Path_7284" data-name="Path 7284" d="M36.41,34.52v-12.3a1.909,1.909,0,0,0-1.9-1.9H16.1V1.9A1.9,1.9,0,0,0,14.2,0H1.9A1.9,1.9,0,0,0,0,1.9v26.47a8.011,8.011,0,0,0,2.356,5.69h0a8.023,8.023,0,0,0,5.69,2.36H34.507a1.909,1.909,0,0,0,1.9-1.9Z" transform="translate(0 0)" fill="none" stroke="#052a3a" stroke-width="1"/>
        </g>
      </g>
      <g id="Group_4922" data-name="Group 4922" transform="translate(173.264 139.054)" opacity="0.4">
        <path id="Path_7285" data-name="Path 7285" d="M21.561,10.779a10.636,10.636,0,0,0-.406-2.922A10.508,10.508,0,0,0,19.468,4.4a10.163,10.163,0,0,0-1.285-1.452A10.774,10.774,0,0,0,.406,7.857,8.222,8.222,0,0,0,.174,8.87,10.46,10.46,0,0,0,0,10.779,10.763,10.763,0,0,0,9.026,21.417a.093.093,0,0,0,.038.005,10.163,10.163,0,0,0,1.716.139,10.781,10.781,0,0,0,10.78-10.783Z" transform="translate(23.866 0)" fill="none" stroke="#052a3a" stroke-width="1"/>
        <g id="Group_4921" data-name="Group 4921" transform="translate(0 8.836)">
          <path id="Path_7286" data-name="Path 7286" d="M36.41,34.52v-12.3a1.909,1.909,0,0,0-1.9-1.9H16.1V1.9A1.9,1.9,0,0,0,14.2,0H1.9A1.9,1.9,0,0,0,0,1.9v26.47a8.011,8.011,0,0,0,2.356,5.69h0a8.023,8.023,0,0,0,5.69,2.36H34.507a1.909,1.909,0,0,0,1.9-1.9Z" transform="translate(0 0)" fill="none" stroke="#052a3a" stroke-width="1"/>
        </g>
      </g>
      <g id="Group_4924" data-name="Group 4924" transform="translate(173.264 467.983)" opacity="0.4">
        <path id="Path_7287" data-name="Path 7287" d="M21.561,10.779a10.636,10.636,0,0,0-.406-2.922A10.508,10.508,0,0,0,19.468,4.4a10.163,10.163,0,0,0-1.285-1.452A10.774,10.774,0,0,0,.406,7.857,8.222,8.222,0,0,0,.174,8.87,10.46,10.46,0,0,0,0,10.779,10.763,10.763,0,0,0,9.026,21.417a.093.093,0,0,0,.038.005,10.163,10.163,0,0,0,1.716.139,10.781,10.781,0,0,0,10.78-10.783Z" transform="translate(23.866 0)" fill="none" stroke="#052a3a" stroke-width="1"/>
        <g id="Group_4923" data-name="Group 4923" transform="translate(0 8.836)">
          <path id="Path_7288" data-name="Path 7288" d="M36.41,34.52v-12.3a1.909,1.909,0,0,0-1.9-1.9H16.1V1.9A1.9,1.9,0,0,0,14.2,0H1.9A1.9,1.9,0,0,0,0,1.9v26.47a8.011,8.011,0,0,0,2.356,5.69h0a8.023,8.023,0,0,0,5.69,2.36H34.507a1.909,1.909,0,0,0,1.9-1.9Z" transform="translate(0 0)" fill="none" stroke="#052a3a" stroke-width="1"/>
        </g>
      </g>
      <g id="Group_4926" data-name="Group 4926" transform="translate(57.754 139.054)" opacity="0.2">
        <path id="Path_7289" data-name="Path 7289" d="M21.561,10.779a10.636,10.636,0,0,0-.406-2.922A10.508,10.508,0,0,0,19.468,4.4a10.163,10.163,0,0,0-1.285-1.452A10.774,10.774,0,0,0,.406,7.857,8.222,8.222,0,0,0,.174,8.87,10.46,10.46,0,0,0,0,10.779,10.763,10.763,0,0,0,9.026,21.417a.093.093,0,0,0,.038.005,10.163,10.163,0,0,0,1.716.139,10.781,10.781,0,0,0,10.78-10.783Z" transform="translate(23.866 0)" fill="none" stroke="#052a3a" stroke-width="1"/>
        <g id="Group_4925" data-name="Group 4925" transform="translate(0 8.836)">
          <path id="Path_7290" data-name="Path 7290" d="M36.41,34.52v-12.3a1.909,1.909,0,0,0-1.9-1.9H16.1V1.9A1.9,1.9,0,0,0,14.2,0H1.9A1.9,1.9,0,0,0,0,1.9v26.47a8.011,8.011,0,0,0,2.356,5.69h0a8.023,8.023,0,0,0,5.69,2.36H34.507a1.909,1.909,0,0,0,1.9-1.9Z" transform="translate(0 0)" fill="none" stroke="#052a3a" stroke-width="1"/>
        </g>
      </g>
      <g id="Group_4928" data-name="Group 4928" transform="translate(57.754 467.983)" opacity="0.2">
        <path id="Path_7291" data-name="Path 7291" d="M21.561,10.779a10.636,10.636,0,0,0-.406-2.922A10.508,10.508,0,0,0,19.468,4.4a10.163,10.163,0,0,0-1.285-1.452A10.774,10.774,0,0,0,.406,7.857,8.222,8.222,0,0,0,.174,8.87,10.46,10.46,0,0,0,0,10.779,10.763,10.763,0,0,0,9.026,21.417a.093.093,0,0,0,.038.005,10.163,10.163,0,0,0,1.716.139,10.781,10.781,0,0,0,10.78-10.783Z" transform="translate(23.866 0)" fill="none" stroke="#052a3a" stroke-width="1"/>
        <g id="Group_4927" data-name="Group 4927" transform="translate(0 8.836)">
          <path id="Path_7292" data-name="Path 7292" d="M36.41,34.52v-12.3a1.909,1.909,0,0,0-1.9-1.9H16.1V1.9A1.9,1.9,0,0,0,14.2,0H1.9A1.9,1.9,0,0,0,0,1.9v26.47a8.011,8.011,0,0,0,2.356,5.69h0a8.023,8.023,0,0,0,5.69,2.36H34.507a1.909,1.909,0,0,0,1.9-1.9Z" transform="translate(0 0)" fill="none" stroke="#052a3a" stroke-width="1"/>
        </g>
      </g>
      <g id="Group_4930" data-name="Group 4930" transform="translate(288.773 221.831)" opacity="0.6">
        <path id="Path_7293" data-name="Path 7293" d="M21.561,10.779a10.636,10.636,0,0,0-.406-2.922A10.508,10.508,0,0,0,19.468,4.4a10.163,10.163,0,0,0-1.285-1.452A10.774,10.774,0,0,0,.406,7.857,8.222,8.222,0,0,0,.174,8.87,10.46,10.46,0,0,0,0,10.779,10.763,10.763,0,0,0,9.026,21.417a.093.093,0,0,0,.038.005,10.163,10.163,0,0,0,1.716.139,10.781,10.781,0,0,0,10.78-10.783Z" transform="translate(23.866 0)" fill="none" stroke="#052a3a" stroke-width="1"/>
        <g id="Group_4929" data-name="Group 4929" transform="translate(0 8.836)">
          <path id="Path_7294" data-name="Path 7294" d="M36.41,34.52v-12.3a1.909,1.909,0,0,0-1.9-1.9H16.1V1.9A1.9,1.9,0,0,0,14.2,0H1.9A1.9,1.9,0,0,0,0,1.9v26.47a8.011,8.011,0,0,0,2.356,5.69h0a8.023,8.023,0,0,0,5.69,2.36H34.507a1.909,1.909,0,0,0,1.9-1.9Z" transform="translate(0 0)" fill="none" stroke="#052a3a" stroke-width="1"/>
        </g>
      </g>
      <g id="Group_4932" data-name="Group 4932" transform="translate(288.773 549.671)" opacity="0.6">
        <path id="Path_7295" data-name="Path 7295" d="M21.561,10.779a10.636,10.636,0,0,0-.406-2.922A10.508,10.508,0,0,0,19.468,4.4a10.163,10.163,0,0,0-1.285-1.452A10.774,10.774,0,0,0,.406,7.857,8.222,8.222,0,0,0,.174,8.87,10.46,10.46,0,0,0,0,10.779,10.763,10.763,0,0,0,9.026,21.417a.093.093,0,0,0,.038.005,10.163,10.163,0,0,0,1.716.139,10.781,10.781,0,0,0,10.78-10.783Z" transform="translate(23.866 0)" fill="none" stroke="#052a3a" stroke-width="1"/>
        <g id="Group_4931" data-name="Group 4931" transform="translate(0 8.836)">
          <path id="Path_7296" data-name="Path 7296" d="M36.41,34.52v-12.3a1.909,1.909,0,0,0-1.9-1.9H16.1V1.9A1.9,1.9,0,0,0,14.2,0H1.9A1.9,1.9,0,0,0,0,1.9v26.47a8.011,8.011,0,0,0,2.356,5.69h0a8.023,8.023,0,0,0,5.69,2.36H34.507a1.909,1.909,0,0,0,1.9-1.9Z" transform="translate(0 0)" fill="none" stroke="#052a3a" stroke-width="1"/>
        </g>
      </g>
      <g id="Group_4934" data-name="Group 4934" transform="translate(173.264 221.831)" opacity="0.4">
        <path id="Path_7297" data-name="Path 7297" d="M21.561,10.779a10.636,10.636,0,0,0-.406-2.922A10.508,10.508,0,0,0,19.468,4.4a10.163,10.163,0,0,0-1.285-1.452A10.774,10.774,0,0,0,.406,7.857,8.222,8.222,0,0,0,.174,8.87,10.46,10.46,0,0,0,0,10.779,10.763,10.763,0,0,0,9.026,21.417a.093.093,0,0,0,.038.005,10.163,10.163,0,0,0,1.716.139,10.781,10.781,0,0,0,10.78-10.783Z" transform="translate(23.866 0)" fill="none" stroke="#052a3a" stroke-width="1"/>
        <g id="Group_4933" data-name="Group 4933" transform="translate(0 8.836)">
          <path id="Path_7298" data-name="Path 7298" d="M36.41,34.52v-12.3a1.909,1.909,0,0,0-1.9-1.9H16.1V1.9A1.9,1.9,0,0,0,14.2,0H1.9A1.9,1.9,0,0,0,0,1.9v26.47a8.011,8.011,0,0,0,2.356,5.69h0a8.023,8.023,0,0,0,5.69,2.36H34.507a1.909,1.909,0,0,0,1.9-1.9Z" transform="translate(0 0)" fill="none" stroke="#052a3a" stroke-width="1"/>
        </g>
      </g>
      <g id="Group_4936" data-name="Group 4936" transform="translate(173.264 549.671)" opacity="0.4">
        <path id="Path_7299" data-name="Path 7299" d="M21.561,10.779a10.636,10.636,0,0,0-.406-2.922A10.508,10.508,0,0,0,19.468,4.4a10.163,10.163,0,0,0-1.285-1.452A10.774,10.774,0,0,0,.406,7.857,8.222,8.222,0,0,0,.174,8.87,10.46,10.46,0,0,0,0,10.779,10.763,10.763,0,0,0,9.026,21.417a.093.093,0,0,0,.038.005,10.163,10.163,0,0,0,1.716.139,10.781,10.781,0,0,0,10.78-10.783Z" transform="translate(23.866 0)" fill="none" stroke="#052a3a" stroke-width="1"/>
        <g id="Group_4935" data-name="Group 4935" transform="translate(0 8.836)">
          <path id="Path_7300" data-name="Path 7300" d="M36.41,34.52v-12.3a1.909,1.909,0,0,0-1.9-1.9H16.1V1.9A1.9,1.9,0,0,0,14.2,0H1.9A1.9,1.9,0,0,0,0,1.9v26.47a8.011,8.011,0,0,0,2.356,5.69h0a8.023,8.023,0,0,0,5.69,2.36H34.507a1.909,1.909,0,0,0,1.9-1.9Z" transform="translate(0 0)" fill="none" stroke="#052a3a" stroke-width="1"/>
        </g>
      </g>
      <g id="Group_4938" data-name="Group 4938" transform="translate(57.754 221.831)" opacity="0.2">
        <path id="Path_7301" data-name="Path 7301" d="M21.561,10.779a10.636,10.636,0,0,0-.406-2.922A10.508,10.508,0,0,0,19.468,4.4a10.163,10.163,0,0,0-1.285-1.452A10.774,10.774,0,0,0,.406,7.857,8.222,8.222,0,0,0,.174,8.87,10.46,10.46,0,0,0,0,10.779,10.763,10.763,0,0,0,9.026,21.417a.093.093,0,0,0,.038.005,10.163,10.163,0,0,0,1.716.139,10.781,10.781,0,0,0,10.78-10.783Z" transform="translate(23.866 0)" fill="none" stroke="#052a3a" stroke-width="1"/>
        <g id="Group_4937" data-name="Group 4937" transform="translate(0 8.836)">
          <path id="Path_7302" data-name="Path 7302" d="M36.41,34.52v-12.3a1.909,1.909,0,0,0-1.9-1.9H16.1V1.9A1.9,1.9,0,0,0,14.2,0H1.9A1.9,1.9,0,0,0,0,1.9v26.47a8.011,8.011,0,0,0,2.356,5.69h0a8.023,8.023,0,0,0,5.69,2.36H34.507a1.909,1.909,0,0,0,1.9-1.9Z" transform="translate(0 0)" fill="none" stroke="#052a3a" stroke-width="1"/>
        </g>
      </g>
      <g id="Group_4940" data-name="Group 4940" transform="translate(57.754 549.671)" opacity="0.2">
        <path id="Path_7303" data-name="Path 7303" d="M21.561,10.779a10.636,10.636,0,0,0-.406-2.922A10.508,10.508,0,0,0,19.468,4.4a10.163,10.163,0,0,0-1.285-1.452A10.774,10.774,0,0,0,.406,7.857,8.222,8.222,0,0,0,.174,8.87,10.46,10.46,0,0,0,0,10.779,10.763,10.763,0,0,0,9.026,21.417a.093.093,0,0,0,.038.005,10.163,10.163,0,0,0,1.716.139,10.781,10.781,0,0,0,10.78-10.783Z" transform="translate(23.866 0)" fill="none" stroke="#052a3a" stroke-width="1"/>
        <g id="Group_4939" data-name="Group 4939" transform="translate(0 8.836)">
          <path id="Path_7304" data-name="Path 7304" d="M36.41,34.52v-12.3a1.909,1.909,0,0,0-1.9-1.9H16.1V1.9A1.9,1.9,0,0,0,14.2,0H1.9A1.9,1.9,0,0,0,0,1.9v26.47a8.011,8.011,0,0,0,2.356,5.69h0a8.023,8.023,0,0,0,5.69,2.36H34.507a1.909,1.909,0,0,0,1.9-1.9Z" transform="translate(0 0)" fill="none" stroke="#052a3a" stroke-width="1"/>
        </g>
      </g>
      <g id="Group_4942" data-name="Group 4942" transform="translate(288.773 57.367)" opacity="0.6">
        <path id="Path_7305" data-name="Path 7305" d="M21.561,10.779a10.636,10.636,0,0,0-.406-2.922A10.508,10.508,0,0,0,19.468,4.4a10.163,10.163,0,0,0-1.285-1.452A10.774,10.774,0,0,0,.406,7.857,8.222,8.222,0,0,0,.174,8.87,10.46,10.46,0,0,0,0,10.779,10.763,10.763,0,0,0,9.026,21.417a.093.093,0,0,0,.038.005,10.163,10.163,0,0,0,1.716.139,10.781,10.781,0,0,0,10.78-10.783Z" transform="translate(23.866 0)" fill="none" stroke="#052a3a" stroke-width="1"/>
        <g id="Group_4941" data-name="Group 4941" transform="translate(0 8.836)">
          <path id="Path_7306" data-name="Path 7306" d="M36.41,34.52v-12.3a1.909,1.909,0,0,0-1.9-1.9H16.1V1.9A1.9,1.9,0,0,0,14.2,0H1.9A1.9,1.9,0,0,0,0,1.9v26.47a8.011,8.011,0,0,0,2.356,5.69h0a8.023,8.023,0,0,0,5.69,2.36H34.507a1.909,1.909,0,0,0,1.9-1.9Z" transform="translate(0 0)" fill="none" stroke="#052a3a" stroke-width="1"/>
        </g>
      </g>
      <g id="Group_4944" data-name="Group 4944" transform="translate(288.773 385.207)" opacity="0.6">
        <path id="Path_7307" data-name="Path 7307" d="M21.561,10.779a10.636,10.636,0,0,0-.406-2.922A10.508,10.508,0,0,0,19.468,4.4a10.163,10.163,0,0,0-1.285-1.452A10.774,10.774,0,0,0,.406,7.857,8.222,8.222,0,0,0,.174,8.87,10.46,10.46,0,0,0,0,10.779,10.763,10.763,0,0,0,9.026,21.417a.093.093,0,0,0,.038.005,10.163,10.163,0,0,0,1.716.139,10.781,10.781,0,0,0,10.78-10.783Z" transform="translate(23.866 0)" fill="none" stroke="#052a3a" stroke-width="1"/>
        <g id="Group_4943" data-name="Group 4943" transform="translate(0 8.836)">
          <path id="Path_7308" data-name="Path 7308" d="M36.41,34.52v-12.3a1.909,1.909,0,0,0-1.9-1.9H16.1V1.9A1.9,1.9,0,0,0,14.2,0H1.9A1.9,1.9,0,0,0,0,1.9v26.47a8.011,8.011,0,0,0,2.356,5.69h0a8.023,8.023,0,0,0,5.69,2.36H34.507a1.909,1.909,0,0,0,1.9-1.9Z" transform="translate(0 0)" fill="none" stroke="#052a3a" stroke-width="1"/>
        </g>
      </g>
      <g id="Group_4946" data-name="Group 4946" transform="translate(173.264 57.367)" opacity="0.4">
        <path id="Path_7309" data-name="Path 7309" d="M21.561,10.779a10.636,10.636,0,0,0-.406-2.922A10.508,10.508,0,0,0,19.468,4.4a10.163,10.163,0,0,0-1.285-1.452A10.774,10.774,0,0,0,.406,7.857,8.222,8.222,0,0,0,.174,8.87,10.46,10.46,0,0,0,0,10.779,10.763,10.763,0,0,0,9.026,21.417a.093.093,0,0,0,.038.005,10.163,10.163,0,0,0,1.716.139,10.781,10.781,0,0,0,10.78-10.783Z" transform="translate(23.866 0)" fill="none" stroke="#052a3a" stroke-width="1"/>
        <g id="Group_4945" data-name="Group 4945" transform="translate(0 8.836)">
          <path id="Path_7310" data-name="Path 7310" d="M36.41,34.52v-12.3a1.909,1.909,0,0,0-1.9-1.9H16.1V1.9A1.9,1.9,0,0,0,14.2,0H1.9A1.9,1.9,0,0,0,0,1.9v26.47a8.011,8.011,0,0,0,2.356,5.69h0a8.023,8.023,0,0,0,5.69,2.36H34.507a1.909,1.909,0,0,0,1.9-1.9Z" transform="translate(0 0)" fill="none" stroke="#052a3a" stroke-width="1"/>
        </g>
      </g>
      <g id="Group_4948" data-name="Group 4948" transform="translate(173.264 385.207)" opacity="0.4">
        <path id="Path_7311" data-name="Path 7311" d="M21.561,10.779a10.636,10.636,0,0,0-.406-2.922A10.508,10.508,0,0,0,19.468,4.4a10.163,10.163,0,0,0-1.285-1.452A10.774,10.774,0,0,0,.406,7.857,8.222,8.222,0,0,0,.174,8.87,10.46,10.46,0,0,0,0,10.779,10.763,10.763,0,0,0,9.026,21.417a.093.093,0,0,0,.038.005,10.163,10.163,0,0,0,1.716.139,10.781,10.781,0,0,0,10.78-10.783Z" transform="translate(23.866 0)" fill="none" stroke="#052a3a" stroke-width="1"/>
        <g id="Group_4947" data-name="Group 4947" transform="translate(0 8.836)">
          <path id="Path_7312" data-name="Path 7312" d="M36.41,34.52v-12.3a1.909,1.909,0,0,0-1.9-1.9H16.1V1.9A1.9,1.9,0,0,0,14.2,0H1.9A1.9,1.9,0,0,0,0,1.9v26.47a8.011,8.011,0,0,0,2.356,5.69h0a8.023,8.023,0,0,0,5.69,2.36H34.507a1.909,1.909,0,0,0,1.9-1.9Z" transform="translate(0 0)" fill="none" stroke="#052a3a" stroke-width="1"/>
        </g>
      </g>
      <g id="Group_4950" data-name="Group 4950" transform="translate(57.754 57.367)" opacity="0.2">
        <path id="Path_7313" data-name="Path 7313" d="M21.561,10.779a10.636,10.636,0,0,0-.406-2.922A10.508,10.508,0,0,0,19.468,4.4a10.163,10.163,0,0,0-1.285-1.452A10.774,10.774,0,0,0,.406,7.857,8.222,8.222,0,0,0,.174,8.87,10.46,10.46,0,0,0,0,10.779,10.763,10.763,0,0,0,9.026,21.417a.093.093,0,0,0,.038.005,10.163,10.163,0,0,0,1.716.139,10.781,10.781,0,0,0,10.78-10.783Z" transform="translate(23.866 0)" fill="none" stroke="#052a3a" stroke-width="1"/>
        <g id="Group_4949" data-name="Group 4949" transform="translate(0 8.836)">
          <path id="Path_7314" data-name="Path 7314" d="M36.41,34.52v-12.3a1.909,1.909,0,0,0-1.9-1.9H16.1V1.9A1.9,1.9,0,0,0,14.2,0H1.9A1.9,1.9,0,0,0,0,1.9v26.47a8.011,8.011,0,0,0,2.356,5.69h0a8.023,8.023,0,0,0,5.69,2.36H34.507a1.909,1.909,0,0,0,1.9-1.9Z" transform="translate(0 0)" fill="none" stroke="#052a3a" stroke-width="1"/>
        </g>
      </g>
      <g id="Group_4952" data-name="Group 4952" transform="translate(57.754 385.207)" opacity="0.2">
        <path id="Path_7315" data-name="Path 7315" d="M21.561,10.779a10.636,10.636,0,0,0-.406-2.922A10.508,10.508,0,0,0,19.468,4.4a10.163,10.163,0,0,0-1.285-1.452A10.774,10.774,0,0,0,.406,7.857,8.222,8.222,0,0,0,.174,8.87,10.46,10.46,0,0,0,0,10.779,10.763,10.763,0,0,0,9.026,21.417a.093.093,0,0,0,.038.005,10.163,10.163,0,0,0,1.716.139,10.781,10.781,0,0,0,10.78-10.783Z" transform="translate(23.866 0)" fill="none" stroke="#052a3a" stroke-width="1"/>
        <g id="Group_4951" data-name="Group 4951" transform="translate(0 8.836)">
          <path id="Path_7316" data-name="Path 7316" d="M36.41,34.52v-12.3a1.909,1.909,0,0,0-1.9-1.9H16.1V1.9A1.9,1.9,0,0,0,14.2,0H1.9A1.9,1.9,0,0,0,0,1.9v26.47a8.011,8.011,0,0,0,2.356,5.69h0a8.023,8.023,0,0,0,5.69,2.36H34.507a1.909,1.909,0,0,0,1.9-1.9Z" transform="translate(0 0)" fill="none" stroke="#052a3a" stroke-width="1"/>
        </g>
      </g>
    </g>
  </g>
</svg>
